<?xml version="1.0" encoding="UTF-8" standalone="no"?>
<!DOCTYPE svg PUBLIC "-//W3C//DTD SVG 1.1//EN"
 "http://www.w3.org/Graphics/SVG/1.1/DTD/svg11.dtd">
<!-- Generated by graphviz version 2.40.1 (20161225.0304)
 -->
<!-- Title: G Pages: 1 -->
<svg width="776pt" height="618pt"
 viewBox="0.00 0.00 776.47 618.00" xmlns="http://www.w3.org/2000/svg" xmlns:xlink="http://www.w3.org/1999/xlink">
<g id="graph0" class="graph" transform="scale(1 1) rotate(0) translate(4 614)">
<title>G</title>
<polygon fill="#ffffff" stroke="transparent" points="-4,4 -4,-614 772.4727,-614 772.4727,4 -4,4"/>
<g id="clust1" class="cluster">
<title>cluster_Global</title>
<path fill="none" stroke="#c0c0c0" d="M446.5496,-44C446.5496,-44 748.4727,-44 748.4727,-44 754.4727,-44 760.4727,-50 760.4727,-56 760.4727,-56 760.4727,-590 760.4727,-590 760.4727,-596 754.4727,-602 748.4727,-602 748.4727,-602 446.5496,-602 446.5496,-602 440.5496,-602 434.5496,-596 434.5496,-590 434.5496,-590 434.5496,-56 434.5496,-56 434.5496,-50 440.5496,-44 446.5496,-44"/>
<text text-anchor="middle" x="597.5112" y="-589.2" font-family="Times,serif" font-size="11.00" fill="#c0c0c0">Global</text>
</g>
<g id="clust2" class="cluster">
<title>cluster_\IcyData</title>
<path fill="none" stroke="#c0c0c0" d="M454.5496,-52C454.5496,-52 740.4727,-52 740.4727,-52 746.4727,-52 752.4727,-58 752.4727,-64 752.4727,-64 752.4727,-563 752.4727,-563 752.4727,-569 746.4727,-575 740.4727,-575 740.4727,-575 454.5496,-575 454.5496,-575 448.5496,-575 442.5496,-569 442.5496,-563 442.5496,-563 442.5496,-64 442.5496,-64 442.5496,-58 448.5496,-52 454.5496,-52"/>
<text text-anchor="middle" x="597.5112" y="-562.2" font-family="Times,serif" font-size="11.00" fill="#c0c0c0">IcyData</text>
</g>
<g id="clust3" class="cluster">
<title>cluster_\IcyData\NHL</title>
<path fill="none" stroke="#c0c0c0" d="M462.5496,-60C462.5496,-60 732.4727,-60 732.4727,-60 738.4727,-60 744.4727,-66 744.4727,-72 744.4727,-72 744.4727,-536 744.4727,-536 744.4727,-542 738.4727,-548 732.4727,-548 732.4727,-548 462.5496,-548 462.5496,-548 456.5496,-548 450.5496,-542 450.5496,-536 450.5496,-536 450.5496,-72 450.5496,-72 450.5496,-66 456.5496,-60 462.5496,-60"/>
<text text-anchor="middle" x="597.5112" y="-535.2" font-family="Times,serif" font-size="11.00" fill="#c0c0c0">NHL</text>
</g>
<g id="clust4" class="cluster">
<title>cluster_\IcyData\NHL\Object</title>
<path fill="none" stroke="#c0c0c0" d="M631.1614,-450C631.1614,-450 705.1722,-450 705.1722,-450 711.1722,-450 717.1722,-456 717.1722,-462 717.1722,-462 717.1722,-509 717.1722,-509 717.1722,-515 711.1722,-521 705.1722,-521 705.1722,-521 631.1614,-521 631.1614,-521 625.1614,-521 619.1614,-515 619.1614,-509 619.1614,-509 619.1614,-462 619.1614,-462 619.1614,-456 625.1614,-450 631.1614,-450"/>
<text text-anchor="middle" x="668.1668" y="-508.2" font-family="Times,serif" font-size="11.00" fill="#c0c0c0">Object</text>
</g>
<g id="clust5" class="cluster">
<title>cluster_\IcyData\NHL\Resource</title>
<path fill="none" stroke="#c0c0c0" d="M470.5496,-247C470.5496,-247 724.4727,-247 724.4727,-247 730.4727,-247 736.4727,-253 736.4727,-259 736.4727,-259 736.4727,-430 736.4727,-430 736.4727,-436 730.4727,-442 724.4727,-442 724.4727,-442 470.5496,-442 470.5496,-442 464.5496,-442 458.5496,-436 458.5496,-430 458.5496,-430 458.5496,-259 458.5496,-259 458.5496,-253 464.5496,-247 470.5496,-247"/>
<text text-anchor="middle" x="597.5112" y="-429.2" font-family="Times,serif" font-size="11.00" fill="#c0c0c0">Resource</text>
</g>
<g id="clust6" class="cluster">
<title>cluster_\IcyData\NHL\Resource\Builder</title>
<path fill="none" stroke="#c0c0c0" d="M619.8609,-255C619.8609,-255 716.4727,-255 716.4727,-255 722.4727,-255 728.4727,-261 728.4727,-267 728.4727,-267 728.4727,-403 728.4727,-403 728.4727,-409 722.4727,-415 716.4727,-415 716.4727,-415 619.8609,-415 619.8609,-415 613.8609,-415 607.8609,-409 607.8609,-403 607.8609,-403 607.8609,-267 607.8609,-267 607.8609,-261 613.8609,-255 619.8609,-255"/>
<text text-anchor="middle" x="668.1668" y="-402.2" font-family="Times,serif" font-size="11.00" fill="#c0c0c0">Builder</text>
</g>
<g id="clust7" class="cluster">
<title>cluster_\IcyData\NHL\Resource\Builder\Conferences</title>
<path fill="none" stroke="#c0c0c0" d="M627.8609,-263C627.8609,-263 708.4727,-263 708.4727,-263 714.4727,-263 720.4727,-269 720.4727,-275 720.4727,-275 720.4727,-376 720.4727,-376 720.4727,-382 714.4727,-388 708.4727,-388 708.4727,-388 627.8609,-388 627.8609,-388 621.8609,-388 615.8609,-382 615.8609,-376 615.8609,-376 615.8609,-275 615.8609,-275 615.8609,-269 621.8609,-263 627.8609,-263"/>
<text text-anchor="middle" x="668.1668" y="-375.2" font-family="Times,serif" font-size="11.00" fill="#c0c0c0">Conferences</text>
</g>
<g id="clust8" class="cluster">
<title>cluster_\IcyData\NHL\Exception</title>
<path fill="none" stroke="#c0c0c0" d="M624.5604,-168C624.5604,-168 711.7733,-168 711.7733,-168 717.7733,-168 723.7733,-174 723.7733,-180 723.7733,-180 723.7733,-227 723.7733,-227 723.7733,-233 717.7733,-239 711.7733,-239 711.7733,-239 624.5604,-239 624.5604,-239 618.5604,-239 612.5604,-233 612.5604,-227 612.5604,-227 612.5604,-180 612.5604,-180 612.5604,-174 618.5604,-168 624.5604,-168"/>
<text text-anchor="middle" x="668.1668" y="-226.2" font-family="Times,serif" font-size="11.00" fill="#c0c0c0">Exception</text>
</g>
<!-- \\IcyData\\NHL\\Object\\Conference -->
<g id="node1" class="node">
<title>\\IcyData\\NHL\\Object\\Conference</title>
<polygon fill="none" stroke="#000000" points="709.1776,-494 627.1561,-494 627.1561,-458 709.1776,-458 709.1776,-494"/>
<text text-anchor="middle" x="668.1668" y="-472.7" font-family="Courier,monospace" font-size="11.00" fill="#000000">Conference</text>
</g>
<!-- \\IcyData\\NHL\\Object -->
<g id="node6" class="node">
<title>\\IcyData\\NHL\\Object</title>
<polygon fill="none" stroke="#000000" points="548.5657,-494 466.5442,-494 466.5442,-458 548.5657,-458 548.5657,-494"/>
<text text-anchor="start" x="474.5496" y="-478.2" font-family="Courier,monospace" font-size="11.00" fill="#000000">«abstract»</text>
<text text-anchor="start" x="487.7518" y="-467.2" font-family="Courier,monospace" font-size="11.00" fill="#000000">Object</text>
</g>
<!-- \\IcyData\\NHL\\Object\\Conference&#45;&gt;\\IcyData\\NHL\\Object -->
<g id="edge2" class="edge">
<title>\\IcyData\\NHL\\Object\\Conference&#45;&gt;\\IcyData\\NHL\\Object</title>
<path fill="none" stroke="#000000" d="M626.8053,-476C606.1038,-476 580.8467,-476 558.9149,-476"/>
<polygon fill="none" stroke="#000000" points="558.7764,-472.5001 548.7764,-476 558.7763,-479.5001 558.7764,-472.5001"/>
</g>
<!-- \\IcyData\\NHL\\Resource\\Builder\\Conferences\\Get -->
<g id="node2" class="node">
<title>\\IcyData\\NHL\\Resource\\Builder\\Conferences\\Get</title>
<polygon fill="none" stroke="#000000" points="695.1668,-361 641.1668,-361 641.1668,-325 695.1668,-325 695.1668,-361"/>
<text text-anchor="middle" x="668.1668" y="-339.7" font-family="Courier,monospace" font-size="11.00" fill="#000000">Get</text>
</g>
<!-- \\IcyData\\NHL\\Resource\\Builder -->
<g id="node4" class="node">
<title>\\IcyData\\NHL\\Resource\\Builder</title>
<polygon fill="none" stroke="#000000" points="548.5657,-334 466.5442,-334 466.5442,-298 548.5657,-298 548.5657,-334"/>
<text text-anchor="start" x="474.5496" y="-318.2" font-family="Courier,monospace" font-size="11.00" fill="#000000">«abstract»</text>
<text text-anchor="start" x="484.4512" y="-307.2" font-family="Courier,monospace" font-size="11.00" fill="#000000">Builder</text>
</g>
<!-- \\IcyData\\NHL\\Resource\\Builder\\Conferences\\Get&#45;&gt;\\IcyData\\NHL\\Resource\\Builder -->
<g id="edge3" class="edge">
<title>\\IcyData\\NHL\\Resource\\Builder\\Conferences\\Get&#45;&gt;\\IcyData\\NHL\\Resource\\Builder</title>
<path fill="none" stroke="#000000" d="M640.9212,-338.4198C618.5417,-334.6577 586.211,-329.2226 558.9873,-324.6461"/>
<polygon fill="none" stroke="#000000" points="559.2769,-321.1458 548.835,-322.9395 558.1164,-328.0489 559.2769,-321.1458"/>
</g>
<!-- \\IcyData\\NHL\\Resource\\Builder\\Conferences\\ListBuilder -->
<g id="node3" class="node">
<title>\\IcyData\\NHL\\Resource\\Builder\\Conferences\\ListBuilder</title>
<polygon fill="none" stroke="#000000" points="712.2795,-307 624.0541,-307 624.0541,-271 712.2795,-271 712.2795,-307"/>
<text text-anchor="middle" x="668.1668" y="-285.7" font-family="Courier,monospace" font-size="11.00" fill="#000000">ListBuilder</text>
</g>
<!-- \\IcyData\\NHL\\Resource\\Builder\\Conferences\\ListBuilder&#45;&gt;\\IcyData\\NHL\\Resource\\Builder -->
<g id="edge5" class="edge">
<title>\\IcyData\\NHL\\Resource\\Builder\\Conferences\\ListBuilder&#45;&gt;\\IcyData\\NHL\\Resource\\Builder</title>
<path fill="none" stroke="#000000" d="M623.8538,-296.4493C603.6657,-299.8431 579.6514,-303.8801 558.7009,-307.402"/>
<polygon fill="none" stroke="#000000" points="557.9739,-303.975 548.6925,-309.0845 559.1344,-310.8782 557.9739,-303.975"/>
</g>
<!-- \\IcyData\\NHL\\Exception\\NHLException -->
<g id="node5" class="node">
<title>\\IcyData\\NHL\\Exception\\NHLException</title>
<polygon fill="none" stroke="#000000" points="715.8799,-212 620.4537,-212 620.4537,-176 715.8799,-176 715.8799,-212"/>
<text text-anchor="middle" x="668.1668" y="-190.7" font-family="Courier,monospace" font-size="11.00" fill="#000000">NHLException</text>
</g>
<!-- \\Exception -->
<g id="node10" class="node">
<title>\\Exception</title>
<ellipse fill="none" stroke="#000000" cx="507.555" cy="-18" rx="40.6162" ry="18"/>
<text text-anchor="middle" x="507.555" y="-13.8" font-family="Times,serif" font-size="14.00" fill="#c0c0c0">xception</text>
</g>
<!-- \\IcyData\\NHL\\Exception\\NHLException&#45;&gt;\\Exception -->
<g id="edge4" class="edge">
<title>\\IcyData\\NHL\\Exception\\NHLException&#45;&gt;\\Exception</title>
<path fill="none" stroke="#000000" d="M620.4904,-180.0042C616.0001,-177.7038 611.6995,-175.0514 607.8609,-172 564.6682,-137.6647 534.0589,-79.4453 518.7419,-45.2769"/>
<polygon fill="none" stroke="#000000" points="521.8615,-43.6746 514.6556,-35.9076 515.4452,-46.473 521.8615,-43.6746"/>
</g>
<!-- \\Symfony\\Component\\HttpFoundation\\ParameterBag -->
<g id="node9" class="node">
<title>\\Symfony\\Component\\HttpFoundation\\ParameterBag</title>
<ellipse fill="none" stroke="#000000" cx="197.2748" cy="-476" rx="197.0499" ry="18"/>
<text text-anchor="middle" x="197.2748" y="-471.8" font-family="Times,serif" font-size="14.00" fill="#c0c0c0">\Symfony\ComponentHttpFoundation\ParameterBag</text>
</g>
<!-- \\IcyData\\NHL\\Object&#45;&gt;\\Symfony\\Component\\HttpFoundation\\ParameterBag -->
<g id="edge1" class="edge">
<title>\\IcyData\\NHL\\Object&#45;&gt;\\Symfony\\Component\\HttpFoundation\\ParameterBag</title>
<path fill="none" stroke="#000000" d="M466.3522,-476C449.264,-476 428.0656,-476 405.1217,-476"/>
<polygon fill="none" stroke="#000000" points="404.8289,-472.5001 394.8288,-476 404.8288,-479.5001 404.8289,-472.5001"/>
</g>
<!-- \\IcyData\\NHL\\Resource -->
<g id="node7" class="node">
<title>\\IcyData\\NHL\\Resource</title>
<polygon fill="none" stroke="#000000" points="709.1776,-158 627.1561,-158 627.1561,-122 709.1776,-122 709.1776,-158"/>
<text text-anchor="start" x="635.1614" y="-142.2" font-family="Courier,monospace" font-size="11.00" fill="#000000">«abstract»</text>
<text text-anchor="start" x="641.7625" y="-131.2" font-family="Courier,monospace" font-size="11.00" fill="#000000">Resource</text>
</g>
<!-- \\IcyData\\NHL\\Client -->
<g id="node8" class="node">
<title>\\IcyData\\NHL\\Client</title>
<polygon fill="none" stroke="#000000" points="695.7746,-104 640.559,-104 640.559,-68 695.7746,-68 695.7746,-104"/>
<text text-anchor="middle" x="668.1668" y="-82.7" font-family="Courier,monospace" font-size="11.00" fill="#000000">Client</text>
</g>
</g>
</svg>
