<?xml version="1.0" encoding="UTF-8" standalone="no"?>
<!DOCTYPE svg PUBLIC "-//W3C//DTD SVG 1.1//EN"
 "http://www.w3.org/Graphics/SVG/1.1/DTD/svg11.dtd">
<!-- Generated by graphviz version 2.40.1 (20161225.0304)
 -->
<!-- Title: G Pages: 1 -->
<svg width="776pt" height="1262pt"
 viewBox="0.00 0.00 776.47 1262.00" xmlns="http://www.w3.org/2000/svg" xmlns:xlink="http://www.w3.org/1999/xlink">
<g id="graph0" class="graph" transform="scale(1 1) rotate(0) translate(4 1258)">
<title>G</title>
<polygon fill="#ffffff" stroke="transparent" points="-4,4 -4,-1258 772.4727,-1258 772.4727,4 -4,4"/>
<g id="clust1" class="cluster">
<title>cluster_Global</title>
<path fill="none" stroke="#c0c0c0" d="M446.5496,-44C446.5496,-44 748.4727,-44 748.4727,-44 754.4727,-44 760.4727,-50 760.4727,-56 760.4727,-56 760.4727,-1234 760.4727,-1234 760.4727,-1240 754.4727,-1246 748.4727,-1246 748.4727,-1246 446.5496,-1246 446.5496,-1246 440.5496,-1246 434.5496,-1240 434.5496,-1234 434.5496,-1234 434.5496,-56 434.5496,-56 434.5496,-50 440.5496,-44 446.5496,-44"/>
<text text-anchor="middle" x="597.5112" y="-1233.2" font-family="Times,serif" font-size="11.00" fill="#c0c0c0">Global</text>
</g>
<g id="clust2" class="cluster">
<title>cluster_\IcyData</title>
<path fill="none" stroke="#c0c0c0" d="M454.5496,-52C454.5496,-52 740.4727,-52 740.4727,-52 746.4727,-52 752.4727,-58 752.4727,-64 752.4727,-64 752.4727,-1207 752.4727,-1207 752.4727,-1213 746.4727,-1219 740.4727,-1219 740.4727,-1219 454.5496,-1219 454.5496,-1219 448.5496,-1219 442.5496,-1213 442.5496,-1207 442.5496,-1207 442.5496,-64 442.5496,-64 442.5496,-58 448.5496,-52 454.5496,-52"/>
<text text-anchor="middle" x="597.5112" y="-1206.2" font-family="Times,serif" font-size="11.00" fill="#c0c0c0">IcyData</text>
</g>
<g id="clust3" class="cluster">
<title>cluster_\IcyData\NHL</title>
<path fill="none" stroke="#c0c0c0" d="M462.5496,-60C462.5496,-60 732.4727,-60 732.4727,-60 738.4727,-60 744.4727,-66 744.4727,-72 744.4727,-72 744.4727,-1180 744.4727,-1180 744.4727,-1186 738.4727,-1192 732.4727,-1192 732.4727,-1192 462.5496,-1192 462.5496,-1192 456.5496,-1192 450.5496,-1186 450.5496,-1180 450.5496,-1180 450.5496,-72 450.5496,-72 450.5496,-66 456.5496,-60 462.5496,-60"/>
<text text-anchor="middle" x="597.5112" y="-1179.2" font-family="Times,serif" font-size="11.00" fill="#c0c0c0">NHL</text>
</g>
<g id="clust4" class="cluster">
<title>cluster_\IcyData\NHL\Resource</title>
<path fill="none" stroke="#c0c0c0" d="M470.5496,-704C470.5496,-704 724.4727,-704 724.4727,-704 730.4727,-704 736.4727,-710 736.4727,-716 736.4727,-716 736.4727,-1153 736.4727,-1153 736.4727,-1159 730.4727,-1165 724.4727,-1165 724.4727,-1165 470.5496,-1165 470.5496,-1165 464.5496,-1165 458.5496,-1159 458.5496,-1153 458.5496,-1153 458.5496,-716 458.5496,-716 458.5496,-710 464.5496,-704 470.5496,-704"/>
<text text-anchor="middle" x="597.5112" y="-1152.2" font-family="Times,serif" font-size="11.00" fill="#c0c0c0">Resource</text>
</g>
<g id="clust5" class="cluster">
<title>cluster_\IcyData\NHL\Resource\Builder</title>
<path fill="none" stroke="#c0c0c0" d="M619.8609,-712C619.8609,-712 716.4727,-712 716.4727,-712 722.4727,-712 728.4727,-718 728.4727,-724 728.4727,-724 728.4727,-1126 728.4727,-1126 728.4727,-1132 722.4727,-1138 716.4727,-1138 716.4727,-1138 619.8609,-1138 619.8609,-1138 613.8609,-1138 607.8609,-1132 607.8609,-1126 607.8609,-1126 607.8609,-724 607.8609,-724 607.8609,-718 613.8609,-712 619.8609,-712"/>
<text text-anchor="middle" x="668.1668" y="-1125.2" font-family="Times,serif" font-size="11.00" fill="#c0c0c0">Builder</text>
</g>
<g id="clust6" class="cluster">
<title>cluster_\IcyData\NHL\Resource\Builder\Divisions</title>
<path fill="none" stroke="#c0c0c0" d="M627.8609,-986C627.8609,-986 708.4727,-986 708.4727,-986 714.4727,-986 720.4727,-992 720.4727,-998 720.4727,-998 720.4727,-1099 720.4727,-1099 720.4727,-1105 714.4727,-1111 708.4727,-1111 708.4727,-1111 627.8609,-1111 627.8609,-1111 621.8609,-1111 615.8609,-1105 615.8609,-1099 615.8609,-1099 615.8609,-998 615.8609,-998 615.8609,-992 621.8609,-986 627.8609,-986"/>
<text text-anchor="middle" x="668.1668" y="-1098.2" font-family="Times,serif" font-size="11.00" fill="#c0c0c0">Divisions</text>
</g>
<g id="clust7" class="cluster">
<title>cluster_\IcyData\NHL\Resource\Builder\Conferences</title>
<path fill="none" stroke="#c0c0c0" d="M627.8609,-853C627.8609,-853 708.4727,-853 708.4727,-853 714.4727,-853 720.4727,-859 720.4727,-865 720.4727,-865 720.4727,-966 720.4727,-966 720.4727,-972 714.4727,-978 708.4727,-978 708.4727,-978 627.8609,-978 627.8609,-978 621.8609,-978 615.8609,-972 615.8609,-966 615.8609,-966 615.8609,-865 615.8609,-865 615.8609,-859 621.8609,-853 627.8609,-853"/>
<text text-anchor="middle" x="668.1668" y="-965.2" font-family="Times,serif" font-size="11.00" fill="#c0c0c0">Conferences</text>
</g>
<g id="clust8" class="cluster">
<title>cluster_\IcyData\NHL\Resource\Builder\Teams</title>
<path fill="none" stroke="#c0c0c0" d="M627.8609,-720C627.8609,-720 708.4727,-720 708.4727,-720 714.4727,-720 720.4727,-726 720.4727,-732 720.4727,-732 720.4727,-833 720.4727,-833 720.4727,-839 714.4727,-845 708.4727,-845 708.4727,-845 627.8609,-845 627.8609,-845 621.8609,-845 615.8609,-839 615.8609,-833 615.8609,-833 615.8609,-732 615.8609,-732 615.8609,-726 621.8609,-720 627.8609,-720"/>
<text text-anchor="middle" x="668.1668" y="-832.2" font-family="Times,serif" font-size="11.00" fill="#c0c0c0">Teams</text>
</g>
<g id="clust9" class="cluster">
<title>cluster_\IcyData\NHL\Object</title>
<path fill="none" stroke="#c0c0c0" d="M631.1614,-247C631.1614,-247 705.1722,-247 705.1722,-247 711.1722,-247 717.1722,-253 717.1722,-259 717.1722,-259 717.1722,-684 717.1722,-684 717.1722,-690 711.1722,-696 705.1722,-696 705.1722,-696 631.1614,-696 631.1614,-696 625.1614,-696 619.1614,-690 619.1614,-684 619.1614,-684 619.1614,-259 619.1614,-259 619.1614,-253 625.1614,-247 631.1614,-247"/>
<text text-anchor="middle" x="668.1668" y="-683.2" font-family="Times,serif" font-size="11.00" fill="#c0c0c0">Object</text>
</g>
<g id="clust10" class="cluster">
<title>cluster_\IcyData\NHL\Exception</title>
<path fill="none" stroke="#c0c0c0" d="M624.5604,-168C624.5604,-168 711.7733,-168 711.7733,-168 717.7733,-168 723.7733,-174 723.7733,-180 723.7733,-180 723.7733,-227 723.7733,-227 723.7733,-233 717.7733,-239 711.7733,-239 711.7733,-239 624.5604,-239 624.5604,-239 618.5604,-239 612.5604,-233 612.5604,-227 612.5604,-227 612.5604,-180 612.5604,-180 612.5604,-174 618.5604,-168 624.5604,-168"/>
<text text-anchor="middle" x="668.1668" y="-226.2" font-family="Times,serif" font-size="11.00" fill="#c0c0c0">Exception</text>
</g>
<!-- \\IcyData\\NHL\\Resource\\Builder\\Divisions\\Get -->
<g id="node1" class="node">
<title>\\IcyData\\NHL\\Resource\\Builder\\Divisions\\Get</title>
<polygon fill="none" stroke="#000000" points="695.1668,-1084 641.1668,-1084 641.1668,-1048 695.1668,-1048 695.1668,-1084"/>
<text text-anchor="middle" x="668.1668" y="-1062.7" font-family="Courier,monospace" font-size="11.00" fill="#000000">Get</text>
</g>
<!-- \\IcyData\\NHL\\Resource\\Builder -->
<g id="node7" class="node">
<title>\\IcyData\\NHL\\Resource\\Builder</title>
<polygon fill="none" stroke="#000000" points="548.5657,-924 466.5442,-924 466.5442,-888 548.5657,-888 548.5657,-924"/>
<text text-anchor="start" x="474.5496" y="-908.2" font-family="Courier,monospace" font-size="11.00" fill="#000000">«abstract»</text>
<text text-anchor="start" x="484.4512" y="-897.2" font-family="Courier,monospace" font-size="11.00" fill="#000000">Builder</text>
</g>
<!-- \\IcyData\\NHL\\Resource\\Builder\\Divisions\\Get&#45;&gt;\\IcyData\\NHL\\Resource\\Builder -->
<g id="edge2" class="edge">
<title>\\IcyData\\NHL\\Resource\\Builder\\Divisions\\Get&#45;&gt;\\IcyData\\NHL\\Resource\\Builder</title>
<path fill="none" stroke="#000000" d="M641.0225,-1057.2238C630.0242,-1052.8433 617.6398,-1046.7919 607.8609,-1039 570.511,-1009.2394 539.6108,-962.5348 522.3799,-933.1276"/>
<polygon fill="none" stroke="#000000" points="525.2877,-931.1625 517.2749,-924.231 519.2162,-934.6464 525.2877,-931.1625"/>
</g>
<!-- \\IcyData\\NHL\\Resource\\Builder\\Divisions\\ListBuilder -->
<g id="node2" class="node">
<title>\\IcyData\\NHL\\Resource\\Builder\\Divisions\\ListBuilder</title>
<polygon fill="none" stroke="#000000" points="712.2795,-1030 624.0541,-1030 624.0541,-994 712.2795,-994 712.2795,-1030"/>
<text text-anchor="middle" x="668.1668" y="-1008.7" font-family="Courier,monospace" font-size="11.00" fill="#000000">ListBuilder</text>
</g>
<!-- \\IcyData\\NHL\\Resource\\Builder\\Divisions\\ListBuilder&#45;&gt;\\IcyData\\NHL\\Resource\\Builder -->
<g id="edge8" class="edge">
<title>\\IcyData\\NHL\\Resource\\Builder\\Divisions\\ListBuilder&#45;&gt;\\IcyData\\NHL\\Resource\\Builder</title>
<path fill="none" stroke="#000000" d="M628.9792,-993.84C621.8237,-990.151 614.5197,-986.1285 607.8609,-982 582.8395,-966.4863 556.3679,-946.2476 536.9054,-930.5564"/>
<polygon fill="none" stroke="#000000" points="538.9834,-927.7349 529.0181,-924.1371 534.5647,-933.1641 538.9834,-927.7349"/>
</g>
<!-- \\IcyData\\NHL\\Resource\\Builder\\Conferences\\Get -->
<g id="node3" class="node">
<title>\\IcyData\\NHL\\Resource\\Builder\\Conferences\\Get</title>
<polygon fill="none" stroke="#000000" points="695.1668,-951 641.1668,-951 641.1668,-915 695.1668,-915 695.1668,-951"/>
<text text-anchor="middle" x="668.1668" y="-929.7" font-family="Courier,monospace" font-size="11.00" fill="#000000">Get</text>
</g>
<!-- \\IcyData\\NHL\\Resource\\Builder\\Conferences\\Get&#45;&gt;\\IcyData\\NHL\\Resource\\Builder -->
<g id="edge5" class="edge">
<title>\\IcyData\\NHL\\Resource\\Builder\\Conferences\\Get&#45;&gt;\\IcyData\\NHL\\Resource\\Builder</title>
<path fill="none" stroke="#000000" d="M640.9212,-928.4198C618.5417,-924.6577 586.211,-919.2226 558.9873,-914.6461"/>
<polygon fill="none" stroke="#000000" points="559.2769,-911.1458 548.835,-912.9395 558.1164,-918.0489 559.2769,-911.1458"/>
</g>
<!-- \\IcyData\\NHL\\Resource\\Builder\\Conferences\\ListBuilder -->
<g id="node4" class="node">
<title>\\IcyData\\NHL\\Resource\\Builder\\Conferences\\ListBuilder</title>
<polygon fill="none" stroke="#000000" points="712.2795,-897 624.0541,-897 624.0541,-861 712.2795,-861 712.2795,-897"/>
<text text-anchor="middle" x="668.1668" y="-875.7" font-family="Courier,monospace" font-size="11.00" fill="#000000">ListBuilder</text>
</g>
<!-- \\IcyData\\NHL\\Resource\\Builder\\Conferences\\ListBuilder&#45;&gt;\\IcyData\\NHL\\Resource\\Builder -->
<g id="edge7" class="edge">
<title>\\IcyData\\NHL\\Resource\\Builder\\Conferences\\ListBuilder&#45;&gt;\\IcyData\\NHL\\Resource\\Builder</title>
<path fill="none" stroke="#000000" d="M623.8538,-886.4493C603.6657,-889.8431 579.6514,-893.8801 558.7009,-897.402"/>
<polygon fill="none" stroke="#000000" points="557.9739,-893.975 548.6925,-899.0845 559.1344,-900.8782 557.9739,-893.975"/>
</g>
<!-- \\IcyData\\NHL\\Resource\\Builder\\Teams\\Get -->
<g id="node5" class="node">
<title>\\IcyData\\NHL\\Resource\\Builder\\Teams\\Get</title>
<polygon fill="none" stroke="#000000" points="695.1668,-818 641.1668,-818 641.1668,-782 695.1668,-782 695.1668,-818"/>
<text text-anchor="middle" x="668.1668" y="-796.7" font-family="Courier,monospace" font-size="11.00" fill="#000000">Get</text>
</g>
<!-- \\IcyData\\NHL\\Resource\\Builder\\Teams\\Get&#45;&gt;\\IcyData\\NHL\\Resource\\Builder -->
<g id="edge15" class="edge">
<title>\\IcyData\\NHL\\Resource\\Builder\\Teams\\Get&#45;&gt;\\IcyData\\NHL\\Resource\\Builder</title>
<path fill="none" stroke="#000000" d="M644.0078,-818.2567C622.0146,-834.588 588.1895,-858.9985 551.1458,-882.2451"/>
<polygon fill="none" stroke="#000000" points="548.8308,-879.5624 542.179,-887.8088 552.5215,-885.5105 548.8308,-879.5624"/>
</g>
<!-- \\IcyData\\NHL\\Resource\\Builder\\Teams\\ListBuilder -->
<g id="node6" class="node">
<title>\\IcyData\\NHL\\Resource\\Builder\\Teams\\ListBuilder</title>
<polygon fill="none" stroke="#000000" points="712.2795,-764 624.0541,-764 624.0541,-728 712.2795,-728 712.2795,-764"/>
<text text-anchor="middle" x="668.1668" y="-742.7" font-family="Courier,monospace" font-size="11.00" fill="#000000">ListBuilder</text>
</g>
<!-- \\IcyData\\NHL\\Resource\\Builder\\Teams\\ListBuilder&#45;&gt;\\IcyData\\NHL\\Resource\\Builder -->
<g id="edge16" class="edge">
<title>\\IcyData\\NHL\\Resource\\Builder\\Teams\\ListBuilder&#45;&gt;\\IcyData\\NHL\\Resource\\Builder</title>
<path fill="none" stroke="#000000" d="M623.8577,-761.6668C618.0871,-764.8622 612.5588,-768.6187 607.8609,-773 569.3534,-808.9126 585.8135,-840.4998 551.245,-880.3791"/>
<polygon fill="none" stroke="#000000" points="548.4572,-878.2354 544.1717,-887.9248 553.5642,-883.0227 548.4572,-878.2354"/>
</g>
<!-- \\IcyData\\NHL\\Object\\Division -->
<g id="node8" class="node">
<title>\\IcyData\\NHL\\Object\\Division</title>
<polygon fill="none" stroke="#000000" points="702.4757,-669 633.8579,-669 633.8579,-633 702.4757,-633 702.4757,-669"/>
<text text-anchor="middle" x="668.1668" y="-647.7" font-family="Courier,monospace" font-size="11.00" fill="#000000">Division</text>
</g>
<!-- \\IcyData\\NHL\\Object -->
<g id="node17" class="node">
<title>\\IcyData\\NHL\\Object</title>
<polygon fill="none" stroke="#000000" points="548.5657,-480 466.5442,-480 466.5442,-444 548.5657,-444 548.5657,-480"/>
<text text-anchor="start" x="474.5496" y="-464.2" font-family="Courier,monospace" font-size="11.00" fill="#000000">«abstract»</text>
<text text-anchor="start" x="487.7518" y="-453.2" font-family="Courier,monospace" font-size="11.00" fill="#000000">Object</text>
</g>
<!-- \\IcyData\\NHL\\Object\\Division&#45;&gt;\\IcyData\\NHL\\Object -->
<g id="edge3" class="edge">
<title>\\IcyData\\NHL\\Object\\Division&#45;&gt;\\IcyData\\NHL\\Object</title>
<path fill="none" stroke="#000000" d="M633.8427,-639.8262C624.7436,-635.7937 615.3726,-630.5707 607.8609,-624 564.5056,-586.0759 533.7225,-524.7921 518.4674,-489.4728"/>
<polygon fill="none" stroke="#000000" points="521.6862,-488.0978 514.5789,-480.2404 515.235,-490.8149 521.6862,-488.0978"/>
</g>
<!-- \\IcyData\\NHL\\Object\\Conference -->
<g id="node9" class="node">
<title>\\IcyData\\NHL\\Object\\Conference</title>
<polygon fill="none" stroke="#000000" points="709.1776,-615 627.1561,-615 627.1561,-579 709.1776,-579 709.1776,-615"/>
<text text-anchor="middle" x="668.1668" y="-593.7" font-family="Courier,monospace" font-size="11.00" fill="#000000">Conference</text>
</g>
<!-- \\IcyData\\NHL\\Object\\Conference&#45;&gt;\\IcyData\\NHL\\Object -->
<g id="edge4" class="edge">
<title>\\IcyData\\NHL\\Object\\Conference&#45;&gt;\\IcyData\\NHL\\Object</title>
<path fill="none" stroke="#000000" d="M627.0375,-581.277C620.3714,-577.9811 613.7358,-574.2087 607.8609,-570 575.6238,-546.9059 545.6594,-512.1957 527.0292,-488.3956"/>
<polygon fill="none" stroke="#000000" points="529.5669,-485.9541 520.6951,-480.1625 524.0188,-490.2225 529.5669,-485.9541"/>
</g>
<!-- \\IcyData\\NHL\\Object\\Team -->
<g id="node10" class="node">
<title>\\IcyData\\NHL\\Object\\Team</title>
<polygon fill="none" stroke="#000000" points="695.1668,-561 641.1668,-561 641.1668,-525 695.1668,-525 695.1668,-561"/>
<text text-anchor="middle" x="668.1668" y="-539.7" font-family="Courier,monospace" font-size="11.00" fill="#000000">Team</text>
</g>
<!-- \\IcyData\\NHL\\Object\\Team&#45;&gt;\\IcyData\\NHL\\Object -->
<g id="edge9" class="edge">
<title>\\IcyData\\NHL\\Object\\Team&#45;&gt;\\IcyData\\NHL\\Object</title>
<path fill="none" stroke="#000000" d="M640.9531,-531.3198C630.5243,-526.7125 618.5646,-521.2686 607.8609,-516 588.2174,-506.331 566.8058,-494.9265 548.8286,-485.0955"/>
<polygon fill="none" stroke="#000000" points="550.2177,-481.8652 539.7683,-480.1155 546.8458,-487.9996 550.2177,-481.8652"/>
</g>
<!-- \\IcyData\\NHL\\Object\\Venue -->
<g id="node11" class="node">
<title>\\IcyData\\NHL\\Object\\Venue</title>
<polygon fill="none" stroke="#000000" points="695.1668,-507 641.1668,-507 641.1668,-471 695.1668,-471 695.1668,-507"/>
<text text-anchor="middle" x="668.1668" y="-485.7" font-family="Courier,monospace" font-size="11.00" fill="#000000">Venue</text>
</g>
<!-- \\IcyData\\NHL\\Object\\Venue&#45;&gt;\\IcyData\\NHL\\Object -->
<g id="edge10" class="edge">
<title>\\IcyData\\NHL\\Object\\Venue&#45;&gt;\\IcyData\\NHL\\Object</title>
<path fill="none" stroke="#000000" d="M640.9212,-484.4198C618.5417,-480.6577 586.211,-475.2226 558.9873,-470.6461"/>
<polygon fill="none" stroke="#000000" points="559.2769,-467.1458 548.835,-468.9395 558.1164,-474.0489 559.2769,-467.1458"/>
</g>
<!-- \\IcyData\\NHL\\Object\\Person -->
<g id="node12" class="node">
<title>\\IcyData\\NHL\\Object\\Person</title>
<polygon fill="none" stroke="#000000" points="695.7746,-453 640.559,-453 640.559,-417 695.7746,-417 695.7746,-453"/>
<text text-anchor="middle" x="668.1668" y="-431.7" font-family="Courier,monospace" font-size="11.00" fill="#000000">Person</text>
</g>
<!-- \\IcyData\\NHL\\Object\\Person&#45;&gt;\\IcyData\\NHL\\Object -->
<g id="edge11" class="edge">
<title>\\IcyData\\NHL\\Object\\Person&#45;&gt;\\IcyData\\NHL\\Object</title>
<path fill="none" stroke="#000000" d="M640.5567,-439.6415C618.1292,-443.4117 585.8845,-448.8323 558.7611,-453.3919"/>
<polygon fill="none" stroke="#000000" points="557.9291,-449.9826 548.6477,-455.092 559.0896,-456.8857 557.9291,-449.9826"/>
</g>
<!-- \\IcyData\\NHL\\Object\\Franchise -->
<g id="node13" class="node">
<title>\\IcyData\\NHL\\Object\\Franchise</title>
<polygon fill="none" stroke="#000000" points="706.0776,-399 630.256,-399 630.256,-363 706.0776,-363 706.0776,-399"/>
<text text-anchor="middle" x="668.1668" y="-377.7" font-family="Courier,monospace" font-size="11.00" fill="#000000">Franchise</text>
</g>
<!-- \\IcyData\\NHL\\Object\\Franchise&#45;&gt;\\IcyData\\NHL\\Object -->
<g id="edge12" class="edge">
<title>\\IcyData\\NHL\\Object\\Franchise&#45;&gt;\\IcyData\\NHL\\Object</title>
<path fill="none" stroke="#000000" d="M630.3314,-397.4318C622.8387,-400.8282 615.0653,-404.4538 607.8609,-408 588.2174,-417.669 566.8058,-429.0735 548.8286,-438.9045"/>
<polygon fill="none" stroke="#000000" points="546.8458,-436.0004 539.7683,-443.8845 550.2177,-442.1348 546.8458,-436.0004"/>
</g>
<!-- \\IcyData\\NHL\\Object\\Roster -->
<g id="node14" class="node">
<title>\\IcyData\\NHL\\Object\\Roster</title>
<polygon fill="none" stroke="#000000" points="695.7746,-345 640.559,-345 640.559,-309 695.7746,-309 695.7746,-345"/>
<text text-anchor="middle" x="668.1668" y="-323.7" font-family="Courier,monospace" font-size="11.00" fill="#000000">Roster</text>
</g>
<!-- \\IcyData\\NHL\\Object\\Roster&#45;&gt;\\IcyData\\NHL\\Object -->
<g id="edge13" class="edge">
<title>\\IcyData\\NHL\\Object\\Roster&#45;&gt;\\IcyData\\NHL\\Object</title>
<path fill="none" stroke="#000000" d="M640.4976,-336.6527C629.7839,-341.0725 617.7457,-346.9187 607.8609,-354 575.6238,-377.0941 545.6594,-411.8043 527.0292,-435.6044"/>
<polygon fill="none" stroke="#000000" points="524.0188,-433.7775 520.6951,-443.8375 529.5669,-438.0459 524.0188,-433.7775"/>
</g>
<!-- \\IcyData\\NHL\\Object\\Player -->
<g id="node15" class="node">
<title>\\IcyData\\NHL\\Object\\Player</title>
<polygon fill="none" stroke="#000000" points="695.7746,-291 640.559,-291 640.559,-255 695.7746,-255 695.7746,-291"/>
<text text-anchor="middle" x="668.1668" y="-269.7" font-family="Courier,monospace" font-size="11.00" fill="#000000">Player</text>
</g>
<!-- \\IcyData\\NHL\\Object\\Player&#45;&gt;\\IcyData\\NHL\\Object -->
<g id="edge14" class="edge">
<title>\\IcyData\\NHL\\Object\\Player&#45;&gt;\\IcyData\\NHL\\Object</title>
<path fill="none" stroke="#000000" d="M640.3542,-281.4597C629.3759,-285.7634 617.1858,-291.8433 607.8609,-300 564.5056,-337.9241 533.7225,-399.2079 518.4674,-434.5272"/>
<polygon fill="none" stroke="#000000" points="515.235,-433.1851 514.5789,-443.7596 521.6862,-435.9022 515.235,-433.1851"/>
</g>
<!-- \\IcyData\\NHL\\Exception\\NHLException -->
<g id="node16" class="node">
<title>\\IcyData\\NHL\\Exception\\NHLException</title>
<polygon fill="none" stroke="#000000" points="715.8799,-212 620.4537,-212 620.4537,-176 715.8799,-176 715.8799,-212"/>
<text text-anchor="middle" x="668.1668" y="-190.7" font-family="Courier,monospace" font-size="11.00" fill="#000000">NHLException</text>
</g>
<!-- \\Exception -->
<g id="node21" class="node">
<title>\\Exception</title>
<ellipse fill="none" stroke="#000000" cx="507.555" cy="-18" rx="40.6162" ry="18"/>
<text text-anchor="middle" x="507.555" y="-13.8" font-family="Times,serif" font-size="14.00" fill="#c0c0c0">xception</text>
</g>
<!-- \\IcyData\\NHL\\Exception\\NHLException&#45;&gt;\\Exception -->
<g id="edge6" class="edge">
<title>\\IcyData\\NHL\\Exception\\NHLException&#45;&gt;\\Exception</title>
<path fill="none" stroke="#000000" d="M620.453,-180.5706C615.9176,-178.1559 611.618,-175.322 607.8609,-172 564.4836,-133.6462 583.5093,-102.1646 548.5604,-56 544.562,-50.7185 539.7811,-45.5523 534.9191,-40.8152"/>
<polygon fill="none" stroke="#000000" points="537.0275,-37.9973 527.3127,-33.7695 532.2706,-43.1327 537.0275,-37.9973"/>
</g>
<!-- \\Symfony\\Component\\HttpFoundation\\ParameterBag -->
<g id="node20" class="node">
<title>\\Symfony\\Component\\HttpFoundation\\ParameterBag</title>
<ellipse fill="none" stroke="#000000" cx="197.2748" cy="-462" rx="197.0499" ry="18"/>
<text text-anchor="middle" x="197.2748" y="-457.8" font-family="Times,serif" font-size="14.00" fill="#c0c0c0">\Symfony\ComponentHttpFoundation\ParameterBag</text>
</g>
<!-- \\IcyData\\NHL\\Object&#45;&gt;\\Symfony\\Component\\HttpFoundation\\ParameterBag -->
<g id="edge1" class="edge">
<title>\\IcyData\\NHL\\Object&#45;&gt;\\Symfony\\Component\\HttpFoundation\\ParameterBag</title>
<path fill="none" stroke="#000000" d="M466.3522,-462C449.264,-462 428.0656,-462 405.1217,-462"/>
<polygon fill="none" stroke="#000000" points="404.8289,-458.5001 394.8288,-462 404.8288,-465.5001 404.8289,-458.5001"/>
</g>
<!-- \\IcyData\\NHL\\Resource -->
<g id="node18" class="node">
<title>\\IcyData\\NHL\\Resource</title>
<polygon fill="none" stroke="#000000" points="709.1776,-158 627.1561,-158 627.1561,-122 709.1776,-122 709.1776,-158"/>
<text text-anchor="start" x="635.1614" y="-142.2" font-family="Courier,monospace" font-size="11.00" fill="#000000">«abstract»</text>
<text text-anchor="start" x="641.7625" y="-131.2" font-family="Courier,monospace" font-size="11.00" fill="#000000">Resource</text>
</g>
<!-- \\IcyData\\NHL\\Client -->
<g id="node19" class="node">
<title>\\IcyData\\NHL\\Client</title>
<polygon fill="none" stroke="#000000" points="695.7746,-104 640.559,-104 640.559,-68 695.7746,-68 695.7746,-104"/>
<text text-anchor="middle" x="668.1668" y="-82.7" font-family="Courier,monospace" font-size="11.00" fill="#000000">Client</text>
</g>
</g>
</svg>
