<?xml version="1.0" encoding="UTF-8" standalone="no"?>
<!DOCTYPE svg PUBLIC "-//W3C//DTD SVG 1.1//EN"
 "http://www.w3.org/Graphics/SVG/1.1/DTD/svg11.dtd">
<!-- Generated by graphviz version 2.40.1 (20161225.0304)
 -->
<!-- Title: G Pages: 1 -->
<svg width="776pt" height="805pt"
 viewBox="0.00 0.00 776.47 805.00" xmlns="http://www.w3.org/2000/svg" xmlns:xlink="http://www.w3.org/1999/xlink">
<g id="graph0" class="graph" transform="scale(1 1) rotate(0) translate(4 801)">
<title>G</title>
<polygon fill="#ffffff" stroke="transparent" points="-4,4 -4,-801 772.4727,-801 772.4727,4 -4,4"/>
<g id="clust1" class="cluster">
<title>cluster_Global</title>
<path fill="none" stroke="#c0c0c0" d="M446.5496,-44C446.5496,-44 748.4727,-44 748.4727,-44 754.4727,-44 760.4727,-50 760.4727,-56 760.4727,-56 760.4727,-777 760.4727,-777 760.4727,-783 754.4727,-789 748.4727,-789 748.4727,-789 446.5496,-789 446.5496,-789 440.5496,-789 434.5496,-783 434.5496,-777 434.5496,-777 434.5496,-56 434.5496,-56 434.5496,-50 440.5496,-44 446.5496,-44"/>
<text text-anchor="middle" x="597.5112" y="-776.2" font-family="Times,serif" font-size="11.00" fill="#c0c0c0">Global</text>
</g>
<g id="clust2" class="cluster">
<title>cluster_\IcyData</title>
<path fill="none" stroke="#c0c0c0" d="M454.5496,-52C454.5496,-52 740.4727,-52 740.4727,-52 746.4727,-52 752.4727,-58 752.4727,-64 752.4727,-64 752.4727,-750 752.4727,-750 752.4727,-756 746.4727,-762 740.4727,-762 740.4727,-762 454.5496,-762 454.5496,-762 448.5496,-762 442.5496,-756 442.5496,-750 442.5496,-750 442.5496,-64 442.5496,-64 442.5496,-58 448.5496,-52 454.5496,-52"/>
<text text-anchor="middle" x="597.5112" y="-749.2" font-family="Times,serif" font-size="11.00" fill="#c0c0c0">IcyData</text>
</g>
<g id="clust3" class="cluster">
<title>cluster_\IcyData\NHL</title>
<path fill="none" stroke="#c0c0c0" d="M462.5496,-60C462.5496,-60 732.4727,-60 732.4727,-60 738.4727,-60 744.4727,-66 744.4727,-72 744.4727,-72 744.4727,-723 744.4727,-723 744.4727,-729 738.4727,-735 732.4727,-735 732.4727,-735 462.5496,-735 462.5496,-735 456.5496,-735 450.5496,-729 450.5496,-723 450.5496,-723 450.5496,-72 450.5496,-72 450.5496,-66 456.5496,-60 462.5496,-60"/>
<text text-anchor="middle" x="597.5112" y="-722.2" font-family="Times,serif" font-size="11.00" fill="#c0c0c0">NHL</text>
</g>
<g id="clust4" class="cluster">
<title>cluster_\IcyData\NHL\Object</title>
<path fill="none" stroke="#c0c0c0" d="M631.1614,-583C631.1614,-583 705.1722,-583 705.1722,-583 711.1722,-583 717.1722,-589 717.1722,-595 717.1722,-595 717.1722,-696 717.1722,-696 717.1722,-702 711.1722,-708 705.1722,-708 705.1722,-708 631.1614,-708 631.1614,-708 625.1614,-708 619.1614,-702 619.1614,-696 619.1614,-696 619.1614,-595 619.1614,-595 619.1614,-589 625.1614,-583 631.1614,-583"/>
<text text-anchor="middle" x="668.1668" y="-695.2" font-family="Times,serif" font-size="11.00" fill="#c0c0c0">Object</text>
</g>
<g id="clust5" class="cluster">
<title>cluster_\IcyData\NHL\Resource</title>
<path fill="none" stroke="#c0c0c0" d="M470.5496,-247C470.5496,-247 724.4727,-247 724.4727,-247 730.4727,-247 736.4727,-253 736.4727,-259 736.4727,-259 736.4727,-563 736.4727,-563 736.4727,-569 730.4727,-575 724.4727,-575 724.4727,-575 470.5496,-575 470.5496,-575 464.5496,-575 458.5496,-569 458.5496,-563 458.5496,-563 458.5496,-259 458.5496,-259 458.5496,-253 464.5496,-247 470.5496,-247"/>
<text text-anchor="middle" x="597.5112" y="-562.2" font-family="Times,serif" font-size="11.00" fill="#c0c0c0">Resource</text>
</g>
<g id="clust6" class="cluster">
<title>cluster_\IcyData\NHL\Resource\Builder</title>
<path fill="none" stroke="#c0c0c0" d="M619.8609,-255C619.8609,-255 716.4727,-255 716.4727,-255 722.4727,-255 728.4727,-261 728.4727,-267 728.4727,-267 728.4727,-536 728.4727,-536 728.4727,-542 722.4727,-548 716.4727,-548 716.4727,-548 619.8609,-548 619.8609,-548 613.8609,-548 607.8609,-542 607.8609,-536 607.8609,-536 607.8609,-267 607.8609,-267 607.8609,-261 613.8609,-255 619.8609,-255"/>
<text text-anchor="middle" x="668.1668" y="-535.2" font-family="Times,serif" font-size="11.00" fill="#c0c0c0">Builder</text>
</g>
<g id="clust7" class="cluster">
<title>cluster_\IcyData\NHL\Resource\Builder\Divisions</title>
<path fill="none" stroke="#c0c0c0" d="M627.8609,-396C627.8609,-396 708.4727,-396 708.4727,-396 714.4727,-396 720.4727,-402 720.4727,-408 720.4727,-408 720.4727,-509 720.4727,-509 720.4727,-515 714.4727,-521 708.4727,-521 708.4727,-521 627.8609,-521 627.8609,-521 621.8609,-521 615.8609,-515 615.8609,-509 615.8609,-509 615.8609,-408 615.8609,-408 615.8609,-402 621.8609,-396 627.8609,-396"/>
<text text-anchor="middle" x="668.1668" y="-508.2" font-family="Times,serif" font-size="11.00" fill="#c0c0c0">Divisions</text>
</g>
<g id="clust8" class="cluster">
<title>cluster_\IcyData\NHL\Resource\Builder\Conferences</title>
<path fill="none" stroke="#c0c0c0" d="M627.8609,-263C627.8609,-263 708.4727,-263 708.4727,-263 714.4727,-263 720.4727,-269 720.4727,-275 720.4727,-275 720.4727,-376 720.4727,-376 720.4727,-382 714.4727,-388 708.4727,-388 708.4727,-388 627.8609,-388 627.8609,-388 621.8609,-388 615.8609,-382 615.8609,-376 615.8609,-376 615.8609,-275 615.8609,-275 615.8609,-269 621.8609,-263 627.8609,-263"/>
<text text-anchor="middle" x="668.1668" y="-375.2" font-family="Times,serif" font-size="11.00" fill="#c0c0c0">Conferences</text>
</g>
<g id="clust9" class="cluster">
<title>cluster_\IcyData\NHL\Exception</title>
<path fill="none" stroke="#c0c0c0" d="M624.5604,-168C624.5604,-168 711.7733,-168 711.7733,-168 717.7733,-168 723.7733,-174 723.7733,-180 723.7733,-180 723.7733,-227 723.7733,-227 723.7733,-233 717.7733,-239 711.7733,-239 711.7733,-239 624.5604,-239 624.5604,-239 618.5604,-239 612.5604,-233 612.5604,-227 612.5604,-227 612.5604,-180 612.5604,-180 612.5604,-174 618.5604,-168 624.5604,-168"/>
<text text-anchor="middle" x="668.1668" y="-226.2" font-family="Times,serif" font-size="11.00" fill="#c0c0c0">Exception</text>
</g>
<!-- \\IcyData\\NHL\\Object\\Division -->
<g id="node1" class="node">
<title>\\IcyData\\NHL\\Object\\Division</title>
<polygon fill="none" stroke="#000000" points="702.4757,-681 633.8579,-681 633.8579,-645 702.4757,-645 702.4757,-681"/>
<text text-anchor="middle" x="668.1668" y="-659.7" font-family="Courier,monospace" font-size="11.00" fill="#000000">Division</text>
</g>
<!-- \\IcyData\\NHL\\Object -->
<g id="node9" class="node">
<title>\\IcyData\\NHL\\Object</title>
<polygon fill="none" stroke="#000000" points="548.5657,-654 466.5442,-654 466.5442,-618 548.5657,-618 548.5657,-654"/>
<text text-anchor="start" x="474.5496" y="-638.2" font-family="Courier,monospace" font-size="11.00" fill="#000000">«abstract»</text>
<text text-anchor="start" x="487.7518" y="-627.2" font-family="Courier,monospace" font-size="11.00" fill="#000000">Object</text>
</g>
<!-- \\IcyData\\NHL\\Object\\Division&#45;&gt;\\IcyData\\NHL\\Object -->
<g id="edge2" class="edge">
<title>\\IcyData\\NHL\\Object\\Division&#45;&gt;\\IcyData\\NHL\\Object</title>
<path fill="none" stroke="#000000" d="M633.7115,-657.2078C611.9355,-653.5471 583.395,-648.7493 558.9691,-644.6431"/>
<polygon fill="none" stroke="#000000" points="559.2264,-641.1373 548.7845,-642.931 558.0659,-648.0404 559.2264,-641.1373"/>
</g>
<!-- \\IcyData\\NHL\\Object\\Conference -->
<g id="node2" class="node">
<title>\\IcyData\\NHL\\Object\\Conference</title>
<polygon fill="none" stroke="#000000" points="709.1776,-627 627.1561,-627 627.1561,-591 709.1776,-591 709.1776,-627"/>
<text text-anchor="middle" x="668.1668" y="-605.7" font-family="Courier,monospace" font-size="11.00" fill="#000000">Conference</text>
</g>
<!-- \\IcyData\\NHL\\Object\\Conference&#45;&gt;\\IcyData\\NHL\\Object -->
<g id="edge3" class="edge">
<title>\\IcyData\\NHL\\Object\\Conference&#45;&gt;\\IcyData\\NHL\\Object</title>
<path fill="none" stroke="#000000" d="M626.8053,-615.9532C606.1038,-619.4332 580.8467,-623.6791 558.9149,-627.366"/>
<polygon fill="none" stroke="#000000" points="558.0577,-623.9609 548.7764,-629.0704 559.2183,-630.8641 558.0577,-623.9609"/>
</g>
<!-- \\IcyData\\NHL\\Resource\\Builder\\Divisions\\Get -->
<g id="node3" class="node">
<title>\\IcyData\\NHL\\Resource\\Builder\\Divisions\\Get</title>
<polygon fill="none" stroke="#000000" points="695.1668,-494 641.1668,-494 641.1668,-458 695.1668,-458 695.1668,-494"/>
<text text-anchor="middle" x="668.1668" y="-472.7" font-family="Courier,monospace" font-size="11.00" fill="#000000">Get</text>
</g>
<!-- \\IcyData\\NHL\\Resource\\Builder -->
<g id="node7" class="node">
<title>\\IcyData\\NHL\\Resource\\Builder</title>
<polygon fill="none" stroke="#000000" points="548.5657,-400 466.5442,-400 466.5442,-364 548.5657,-364 548.5657,-400"/>
<text text-anchor="start" x="474.5496" y="-384.2" font-family="Courier,monospace" font-size="11.00" fill="#000000">«abstract»</text>
<text text-anchor="start" x="484.4512" y="-373.2" font-family="Courier,monospace" font-size="11.00" fill="#000000">Builder</text>
</g>
<!-- \\IcyData\\NHL\\Resource\\Builder\\Divisions\\Get&#45;&gt;\\IcyData\\NHL\\Resource\\Builder -->
<g id="edge4" class="edge">
<title>\\IcyData\\NHL\\Resource\\Builder\\Divisions\\Get&#45;&gt;\\IcyData\\NHL\\Resource\\Builder</title>
<path fill="none" stroke="#000000" d="M641.0902,-465.4395C630.4582,-460.8946 618.321,-455.1999 607.8609,-449 581.9566,-433.6461 577.1451,-423.7717 550.7298,-405.7055"/>
<polygon fill="none" stroke="#000000" points="552.5095,-402.6866 542.2346,-400.1028 548.6556,-408.5302 552.5095,-402.6866"/>
</g>
<!-- \\IcyData\\NHL\\Resource\\Builder\\Divisions\\ListBuilder -->
<g id="node4" class="node">
<title>\\IcyData\\NHL\\Resource\\Builder\\Divisions\\ListBuilder</title>
<polygon fill="none" stroke="#000000" points="712.2795,-440 624.0541,-440 624.0541,-404 712.2795,-404 712.2795,-440"/>
<text text-anchor="middle" x="668.1668" y="-418.7" font-family="Courier,monospace" font-size="11.00" fill="#000000">ListBuilder</text>
</g>
<!-- \\IcyData\\NHL\\Resource\\Builder\\Divisions\\ListBuilder&#45;&gt;\\IcyData\\NHL\\Resource\\Builder -->
<g id="edge5" class="edge">
<title>\\IcyData\\NHL\\Resource\\Builder\\Divisions\\ListBuilder&#45;&gt;\\IcyData\\NHL\\Resource\\Builder</title>
<path fill="none" stroke="#000000" d="M623.8538,-410.9639C603.574,-405.9133 579.433,-399.9011 558.4155,-394.6667"/>
<polygon fill="none" stroke="#000000" points="559.2419,-391.2657 548.6925,-392.2452 557.5502,-398.0582 559.2419,-391.2657"/>
</g>
<!-- \\IcyData\\NHL\\Resource\\Builder\\Conferences\\Get -->
<g id="node5" class="node">
<title>\\IcyData\\NHL\\Resource\\Builder\\Conferences\\Get</title>
<polygon fill="none" stroke="#000000" points="695.1668,-361 641.1668,-361 641.1668,-325 695.1668,-325 695.1668,-361"/>
<text text-anchor="middle" x="668.1668" y="-339.7" font-family="Courier,monospace" font-size="11.00" fill="#000000">Get</text>
</g>
<!-- \\IcyData\\NHL\\Resource\\Builder\\Conferences\\Get&#45;&gt;\\IcyData\\NHL\\Resource\\Builder -->
<g id="edge6" class="edge">
<title>\\IcyData\\NHL\\Resource\\Builder\\Conferences\\Get&#45;&gt;\\IcyData\\NHL\\Resource\\Builder</title>
<path fill="none" stroke="#000000" d="M640.9212,-349.6158C618.4431,-355.074 585.926,-362.9698 558.6278,-369.5984"/>
<polygon fill="none" stroke="#000000" points="557.7267,-366.2154 548.835,-371.9763 559.3785,-373.0178 557.7267,-366.2154"/>
</g>
<!-- \\IcyData\\NHL\\Resource\\Builder\\Conferences\\ListBuilder -->
<g id="node6" class="node">
<title>\\IcyData\\NHL\\Resource\\Builder\\Conferences\\ListBuilder</title>
<polygon fill="none" stroke="#000000" points="712.2795,-307 624.0541,-307 624.0541,-271 712.2795,-271 712.2795,-307"/>
<text text-anchor="middle" x="668.1668" y="-285.7" font-family="Courier,monospace" font-size="11.00" fill="#000000">ListBuilder</text>
</g>
<!-- \\IcyData\\NHL\\Resource\\Builder\\Conferences\\ListBuilder&#45;&gt;\\IcyData\\NHL\\Resource\\Builder -->
<g id="edge7" class="edge">
<title>\\IcyData\\NHL\\Resource\\Builder\\Conferences\\ListBuilder&#45;&gt;\\IcyData\\NHL\\Resource\\Builder</title>
<path fill="none" stroke="#000000" d="M625.5699,-307.035C619.5482,-309.883 613.4939,-312.912 607.8609,-316 584.8761,-328.6003 560.271,-344.7456 541.1827,-357.9135"/>
<polygon fill="none" stroke="#000000" points="539.0338,-355.1448 532.8262,-363.7307 543.0331,-360.8899 539.0338,-355.1448"/>
</g>
<!-- \\IcyData\\NHL\\Exception\\NHLException -->
<g id="node8" class="node">
<title>\\IcyData\\NHL\\Exception\\NHLException</title>
<polygon fill="none" stroke="#000000" points="715.8799,-212 620.4537,-212 620.4537,-176 715.8799,-176 715.8799,-212"/>
<text text-anchor="middle" x="668.1668" y="-190.7" font-family="Courier,monospace" font-size="11.00" fill="#000000">NHLException</text>
</g>
<!-- \\Exception -->
<g id="node13" class="node">
<title>\\Exception</title>
<ellipse fill="none" stroke="#000000" cx="507.555" cy="-18" rx="40.6162" ry="18"/>
<text text-anchor="middle" x="507.555" y="-13.8" font-family="Times,serif" font-size="14.00" fill="#c0c0c0">xception</text>
</g>
<!-- \\IcyData\\NHL\\Exception\\NHLException&#45;&gt;\\Exception -->
<g id="edge8" class="edge">
<title>\\IcyData\\NHL\\Exception\\NHLException&#45;&gt;\\Exception</title>
<path fill="none" stroke="#000000" d="M620.4904,-180.0042C616.0001,-177.7038 611.6995,-175.0514 607.8609,-172 564.6682,-137.6647 534.0589,-79.4453 518.7419,-45.2769"/>
<polygon fill="none" stroke="#000000" points="521.8615,-43.6746 514.6556,-35.9076 515.4452,-46.473 521.8615,-43.6746"/>
</g>
<!-- \\Symfony\\Component\\HttpFoundation\\ParameterBag -->
<g id="node12" class="node">
<title>\\Symfony\\Component\\HttpFoundation\\ParameterBag</title>
<ellipse fill="none" stroke="#000000" cx="197.2748" cy="-636" rx="197.0499" ry="18"/>
<text text-anchor="middle" x="197.2748" y="-631.8" font-family="Times,serif" font-size="14.00" fill="#c0c0c0">\Symfony\ComponentHttpFoundation\ParameterBag</text>
</g>
<!-- \\IcyData\\NHL\\Object&#45;&gt;\\Symfony\\Component\\HttpFoundation\\ParameterBag -->
<g id="edge1" class="edge">
<title>\\IcyData\\NHL\\Object&#45;&gt;\\Symfony\\Component\\HttpFoundation\\ParameterBag</title>
<path fill="none" stroke="#000000" d="M466.3522,-636C449.264,-636 428.0656,-636 405.1217,-636"/>
<polygon fill="none" stroke="#000000" points="404.8289,-632.5001 394.8288,-636 404.8288,-639.5001 404.8289,-632.5001"/>
</g>
<!-- \\IcyData\\NHL\\Resource -->
<g id="node10" class="node">
<title>\\IcyData\\NHL\\Resource</title>
<polygon fill="none" stroke="#000000" points="709.1776,-158 627.1561,-158 627.1561,-122 709.1776,-122 709.1776,-158"/>
<text text-anchor="start" x="635.1614" y="-142.2" font-family="Courier,monospace" font-size="11.00" fill="#000000">«abstract»</text>
<text text-anchor="start" x="641.7625" y="-131.2" font-family="Courier,monospace" font-size="11.00" fill="#000000">Resource</text>
</g>
<!-- \\IcyData\\NHL\\Client -->
<g id="node11" class="node">
<title>\\IcyData\\NHL\\Client</title>
<polygon fill="none" stroke="#000000" points="695.7746,-104 640.559,-104 640.559,-68 695.7746,-68 695.7746,-104"/>
<text text-anchor="middle" x="668.1668" y="-82.7" font-family="Courier,monospace" font-size="11.00" fill="#000000">Client</text>
</g>
</g>
</svg>
