<?xml version="1.0" encoding="UTF-8" standalone="no"?>
<!DOCTYPE svg PUBLIC "-//W3C//DTD SVG 1.1//EN"
 "http://www.w3.org/Graphics/SVG/1.1/DTD/svg11.dtd">
<!-- Generated by graphviz version 2.40.1 (20161225.0304)
 -->
<!-- Title: G Pages: 1 -->
<svg width="776pt" height="1616pt"
 viewBox="0.00 0.00 776.47 1616.00" xmlns="http://www.w3.org/2000/svg" xmlns:xlink="http://www.w3.org/1999/xlink">
<g id="graph0" class="graph" transform="scale(1 1) rotate(0) translate(4 1612)">
<title>G</title>
<polygon fill="#ffffff" stroke="transparent" points="-4,4 -4,-1612 772.4727,-1612 772.4727,4 -4,4"/>
<g id="clust1" class="cluster">
<title>cluster_Global</title>
<path fill="none" stroke="#c0c0c0" d="M446.5496,-44C446.5496,-44 748.4727,-44 748.4727,-44 754.4727,-44 760.4727,-50 760.4727,-56 760.4727,-56 760.4727,-1588 760.4727,-1588 760.4727,-1594 754.4727,-1600 748.4727,-1600 748.4727,-1600 446.5496,-1600 446.5496,-1600 440.5496,-1600 434.5496,-1594 434.5496,-1588 434.5496,-1588 434.5496,-56 434.5496,-56 434.5496,-50 440.5496,-44 446.5496,-44"/>
<text text-anchor="middle" x="597.5112" y="-1587.2" font-family="Times,serif" font-size="11.00" fill="#c0c0c0">Global</text>
</g>
<g id="clust2" class="cluster">
<title>cluster_\IcyData</title>
<path fill="none" stroke="#c0c0c0" d="M454.5496,-52C454.5496,-52 740.4727,-52 740.4727,-52 746.4727,-52 752.4727,-58 752.4727,-64 752.4727,-64 752.4727,-1561 752.4727,-1561 752.4727,-1567 746.4727,-1573 740.4727,-1573 740.4727,-1573 454.5496,-1573 454.5496,-1573 448.5496,-1573 442.5496,-1567 442.5496,-1561 442.5496,-1561 442.5496,-64 442.5496,-64 442.5496,-58 448.5496,-52 454.5496,-52"/>
<text text-anchor="middle" x="597.5112" y="-1560.2" font-family="Times,serif" font-size="11.00" fill="#c0c0c0">IcyData</text>
</g>
<g id="clust3" class="cluster">
<title>cluster_\IcyData\NHL</title>
<path fill="none" stroke="#c0c0c0" d="M462.5496,-60C462.5496,-60 732.4727,-60 732.4727,-60 738.4727,-60 744.4727,-66 744.4727,-72 744.4727,-72 744.4727,-1534 744.4727,-1534 744.4727,-1540 738.4727,-1546 732.4727,-1546 732.4727,-1546 462.5496,-1546 462.5496,-1546 456.5496,-1546 450.5496,-1540 450.5496,-1534 450.5496,-1534 450.5496,-72 450.5496,-72 450.5496,-66 456.5496,-60 462.5496,-60"/>
<text text-anchor="middle" x="597.5112" y="-1533.2" font-family="Times,serif" font-size="11.00" fill="#c0c0c0">NHL</text>
</g>
<g id="clust4" class="cluster">
<title>cluster_\IcyData\NHL\Resource</title>
<path fill="none" stroke="#c0c0c0" d="M470.5496,-758C470.5496,-758 724.4727,-758 724.4727,-758 730.4727,-758 736.4727,-764 736.4727,-770 736.4727,-770 736.4727,-1463 736.4727,-1463 736.4727,-1469 730.4727,-1475 724.4727,-1475 724.4727,-1475 470.5496,-1475 470.5496,-1475 464.5496,-1475 458.5496,-1469 458.5496,-1463 458.5496,-1463 458.5496,-770 458.5496,-770 458.5496,-764 464.5496,-758 470.5496,-758"/>
<text text-anchor="middle" x="597.5112" y="-1462.2" font-family="Times,serif" font-size="11.00" fill="#c0c0c0">Resource</text>
</g>
<g id="clust5" class="cluster">
<title>cluster_\IcyData\NHL\Resource\Builder</title>
<path fill="none" stroke="#c0c0c0" d="M619.8609,-766C619.8609,-766 716.4727,-766 716.4727,-766 722.4727,-766 728.4727,-772 728.4727,-778 728.4727,-778 728.4727,-1338 728.4727,-1338 728.4727,-1344 722.4727,-1350 716.4727,-1350 716.4727,-1350 619.8609,-1350 619.8609,-1350 613.8609,-1350 607.8609,-1344 607.8609,-1338 607.8609,-1338 607.8609,-778 607.8609,-778 607.8609,-772 613.8609,-766 619.8609,-766"/>
<text text-anchor="middle" x="668.1668" y="-1337.2" font-family="Times,serif" font-size="11.00" fill="#c0c0c0">Builder</text>
</g>
<g id="clust6" class="cluster">
<title>cluster_\IcyData\NHL\Resource\Builder\Divisions</title>
<path fill="none" stroke="#c0c0c0" d="M627.8609,-1198C627.8609,-1198 708.4727,-1198 708.4727,-1198 714.4727,-1198 720.4727,-1204 720.4727,-1210 720.4727,-1210 720.4727,-1311 720.4727,-1311 720.4727,-1317 714.4727,-1323 708.4727,-1323 708.4727,-1323 627.8609,-1323 627.8609,-1323 621.8609,-1323 615.8609,-1317 615.8609,-1311 615.8609,-1311 615.8609,-1210 615.8609,-1210 615.8609,-1204 621.8609,-1198 627.8609,-1198"/>
<text text-anchor="middle" x="668.1668" y="-1310.2" font-family="Times,serif" font-size="11.00" fill="#c0c0c0">Divisions</text>
</g>
<g id="clust7" class="cluster">
<title>cluster_\IcyData\NHL\Resource\Builder\Draft</title>
<path fill="none" stroke="#c0c0c0" d="M645.1668,-1119C645.1668,-1119 691.1668,-1119 691.1668,-1119 697.1668,-1119 703.1668,-1125 703.1668,-1131 703.1668,-1131 703.1668,-1178 703.1668,-1178 703.1668,-1184 697.1668,-1190 691.1668,-1190 691.1668,-1190 645.1668,-1190 645.1668,-1190 639.1668,-1190 633.1668,-1184 633.1668,-1178 633.1668,-1178 633.1668,-1131 633.1668,-1131 633.1668,-1125 639.1668,-1119 645.1668,-1119"/>
<text text-anchor="middle" x="668.1668" y="-1177.2" font-family="Times,serif" font-size="11.00" fill="#c0c0c0">Draft</text>
</g>
<g id="clust8" class="cluster">
<title>cluster_\IcyData\NHL\Resource\Builder\People</title>
<path fill="none" stroke="#c0c0c0" d="M645.1668,-1040C645.1668,-1040 691.1668,-1040 691.1668,-1040 697.1668,-1040 703.1668,-1046 703.1668,-1052 703.1668,-1052 703.1668,-1099 703.1668,-1099 703.1668,-1105 697.1668,-1111 691.1668,-1111 691.1668,-1111 645.1668,-1111 645.1668,-1111 639.1668,-1111 633.1668,-1105 633.1668,-1099 633.1668,-1099 633.1668,-1052 633.1668,-1052 633.1668,-1046 639.1668,-1040 645.1668,-1040"/>
<text text-anchor="middle" x="668.1668" y="-1098.2" font-family="Times,serif" font-size="11.00" fill="#c0c0c0">People</text>
</g>
<g id="clust9" class="cluster">
<title>cluster_\IcyData\NHL\Resource\Builder\Teams</title>
<path fill="none" stroke="#c0c0c0" d="M627.8609,-907C627.8609,-907 708.4727,-907 708.4727,-907 714.4727,-907 720.4727,-913 720.4727,-919 720.4727,-919 720.4727,-1020 720.4727,-1020 720.4727,-1026 714.4727,-1032 708.4727,-1032 708.4727,-1032 627.8609,-1032 627.8609,-1032 621.8609,-1032 615.8609,-1026 615.8609,-1020 615.8609,-1020 615.8609,-919 615.8609,-919 615.8609,-913 621.8609,-907 627.8609,-907"/>
<text text-anchor="middle" x="668.1668" y="-1019.2" font-family="Times,serif" font-size="11.00" fill="#c0c0c0">Teams</text>
</g>
<g id="clust10" class="cluster">
<title>cluster_\IcyData\NHL\Resource\Builder\Conferences</title>
<path fill="none" stroke="#c0c0c0" d="M627.8609,-774C627.8609,-774 708.4727,-774 708.4727,-774 714.4727,-774 720.4727,-780 720.4727,-786 720.4727,-786 720.4727,-887 720.4727,-887 720.4727,-893 714.4727,-899 708.4727,-899 708.4727,-899 627.8609,-899 627.8609,-899 621.8609,-899 615.8609,-893 615.8609,-887 615.8609,-887 615.8609,-786 615.8609,-786 615.8609,-780 621.8609,-774 627.8609,-774"/>
<text text-anchor="middle" x="668.1668" y="-886.2" font-family="Times,serif" font-size="11.00" fill="#c0c0c0">Conferences</text>
</g>
<g id="clust11" class="cluster">
<title>cluster_\IcyData\NHL\NHLObject</title>
<path fill="none" stroke="#c0c0c0" d="M631.1614,-193C631.1614,-193 705.1722,-193 705.1722,-193 711.1722,-193 717.1722,-199 717.1722,-205 717.1722,-205 717.1722,-738 717.1722,-738 717.1722,-744 711.1722,-750 705.1722,-750 705.1722,-750 631.1614,-750 631.1614,-750 625.1614,-750 619.1614,-744 619.1614,-738 619.1614,-738 619.1614,-205 619.1614,-205 619.1614,-199 625.1614,-193 631.1614,-193"/>
<text text-anchor="middle" x="668.1668" y="-737.2" font-family="Times,serif" font-size="11.00" fill="#c0c0c0">NHLObject</text>
</g>
<g id="clust12" class="cluster">
<title>cluster_\IcyData\NHL\Exception</title>
<path fill="none" stroke="#c0c0c0" d="M624.5604,-114C624.5604,-114 711.7733,-114 711.7733,-114 717.7733,-114 723.7733,-120 723.7733,-126 723.7733,-126 723.7733,-173 723.7733,-173 723.7733,-179 717.7733,-185 711.7733,-185 711.7733,-185 624.5604,-185 624.5604,-185 618.5604,-185 612.5604,-179 612.5604,-173 612.5604,-173 612.5604,-126 612.5604,-126 612.5604,-120 618.5604,-114 624.5604,-114"/>
<text text-anchor="middle" x="668.1668" y="-172.2" font-family="Times,serif" font-size="11.00" fill="#c0c0c0">Exception</text>
</g>
<!-- \\IcyData\\NHL\\Resource\\Builder\\Divisions\\Get -->
<g id="node1" class="node">
<title>\\IcyData\\NHL\\Resource\\Builder\\Divisions\\Get</title>
<polygon fill="none" stroke="#000000" points="695.1668,-1296 641.1668,-1296 641.1668,-1260 695.1668,-1260 695.1668,-1296"/>
<text text-anchor="middle" x="668.1668" y="-1274.7" font-family="Courier,monospace" font-size="11.00" fill="#000000">Get</text>
</g>
<!-- \\IcyData\\NHL\\Resource\\Builder -->
<g id="node10" class="node">
<title>\\IcyData\\NHL\\Resource\\Builder</title>
<polygon fill="none" stroke="#000000" points="548.5657,-1044 466.5442,-1044 466.5442,-1008 548.5657,-1008 548.5657,-1044"/>
<text text-anchor="start" x="474.5496" y="-1028.2" font-family="Courier,monospace" font-size="11.00" fill="#000000">«abstract»</text>
<text text-anchor="start" x="484.4512" y="-1017.2" font-family="Courier,monospace" font-size="11.00" fill="#000000">Builder</text>
</g>
<!-- \\IcyData\\NHL\\Resource\\Builder\\Divisions\\Get&#45;&gt;\\IcyData\\NHL\\Resource\\Builder -->
<g id="edge1" class="edge">
<title>\\IcyData\\NHL\\Resource\\Builder\\Divisions\\Get&#45;&gt;\\IcyData\\NHL\\Resource\\Builder</title>
<path fill="none" stroke="#000000" d="M641.0188,-1271.3924C629.3533,-1267.2894 616.4545,-1260.8571 607.8609,-1251 548.2652,-1182.6424 603.5735,-1125.183 551.0768,-1052.1291"/>
<polygon fill="none" stroke="#000000" points="553.7637,-1049.8812 544.8982,-1044.08 548.211,-1054.1436 553.7637,-1049.8812"/>
</g>
<!-- \\IcyData\\NHL\\Resource\\Builder\\Divisions\\ListBuilder -->
<g id="node2" class="node">
<title>\\IcyData\\NHL\\Resource\\Builder\\Divisions\\ListBuilder</title>
<polygon fill="none" stroke="#000000" points="712.2795,-1242 624.0541,-1242 624.0541,-1206 712.2795,-1206 712.2795,-1242"/>
<text text-anchor="middle" x="668.1668" y="-1220.7" font-family="Courier,monospace" font-size="11.00" fill="#000000">ListBuilder</text>
</g>
<!-- \\IcyData\\NHL\\Resource\\Builder\\Divisions\\ListBuilder&#45;&gt;\\IcyData\\NHL\\Resource\\Builder -->
<g id="edge22" class="edge">
<title>\\IcyData\\NHL\\Resource\\Builder\\Divisions\\ListBuilder&#45;&gt;\\IcyData\\NHL\\Resource\\Builder</title>
<path fill="none" stroke="#000000" d="M624.0192,-1206.8486C618.0886,-1203.2343 612.4716,-1198.9741 607.8609,-1194 562.4812,-1145.043 592.2637,-1104.1 551.3005,-1051.9975"/>
<polygon fill="none" stroke="#000000" points="553.8572,-1049.6005 544.7261,-1044.227 548.5132,-1054.1218 553.8572,-1049.6005"/>
</g>
<!-- \\IcyData\\NHL\\Resource\\Builder\\Draft\\Get -->
<g id="node3" class="node">
<title>\\IcyData\\NHL\\Resource\\Builder\\Draft\\Get</title>
<polygon fill="none" stroke="#000000" points="695.1668,-1163 641.1668,-1163 641.1668,-1127 695.1668,-1127 695.1668,-1163"/>
<text text-anchor="middle" x="668.1668" y="-1141.7" font-family="Courier,monospace" font-size="11.00" fill="#000000">Get</text>
</g>
<!-- \\IcyData\\NHL\\Resource\\Builder\\Draft\\Get&#45;&gt;\\IcyData\\NHL\\Resource\\Builder -->
<g id="edge2" class="edge">
<title>\\IcyData\\NHL\\Resource\\Builder\\Draft\\Get&#45;&gt;\\IcyData\\NHL\\Resource\\Builder</title>
<path fill="none" stroke="#000000" d="M641.0548,-1134.2163C630.1839,-1129.2225 617.8845,-1122.6827 607.8609,-1115 578.7648,-1092.6991 579.4209,-1075.5447 551.2165,-1050.6994"/>
<polygon fill="none" stroke="#000000" points="553.3206,-1047.8974 543.3884,-1044.2092 548.8528,-1053.2862 553.3206,-1047.8974"/>
</g>
<!-- \\IcyData\\NHL\\Resource\\Builder\\People\\Get -->
<g id="node4" class="node">
<title>\\IcyData\\NHL\\Resource\\Builder\\People\\Get</title>
<polygon fill="none" stroke="#000000" points="695.1668,-1084 641.1668,-1084 641.1668,-1048 695.1668,-1048 695.1668,-1084"/>
<text text-anchor="middle" x="668.1668" y="-1062.7" font-family="Courier,monospace" font-size="11.00" fill="#000000">Get</text>
</g>
<!-- \\IcyData\\NHL\\Resource\\Builder\\People\\Get&#45;&gt;\\IcyData\\NHL\\Resource\\Builder -->
<g id="edge3" class="edge">
<title>\\IcyData\\NHL\\Resource\\Builder\\People\\Get&#45;&gt;\\IcyData\\NHL\\Resource\\Builder</title>
<path fill="none" stroke="#000000" d="M640.9212,-1059.2145C618.4431,-1053.6164 585.926,-1045.5181 558.6278,-1038.7196"/>
<polygon fill="none" stroke="#000000" points="559.3845,-1035.3012 548.835,-1036.2807 557.6928,-1042.0937 559.3845,-1035.3012"/>
</g>
<!-- \\IcyData\\NHL\\Resource\\Builder\\Teams\\ListBuilder -->
<g id="node5" class="node">
<title>\\IcyData\\NHL\\Resource\\Builder\\Teams\\ListBuilder</title>
<polygon fill="none" stroke="#000000" points="712.2795,-1005 624.0541,-1005 624.0541,-969 712.2795,-969 712.2795,-1005"/>
<text text-anchor="middle" x="668.1668" y="-983.7" font-family="Courier,monospace" font-size="11.00" fill="#000000">ListBuilder</text>
</g>
<!-- \\IcyData\\NHL\\Resource\\Builder\\Teams\\ListBuilder&#45;&gt;\\IcyData\\NHL\\Resource\\Builder -->
<g id="edge12" class="edge">
<title>\\IcyData\\NHL\\Resource\\Builder\\Teams\\ListBuilder&#45;&gt;\\IcyData\\NHL\\Resource\\Builder</title>
<path fill="none" stroke="#000000" d="M623.8538,-997.7602C603.574,-1002.6845 579.433,-1008.5465 558.4155,-1013.65"/>
<polygon fill="none" stroke="#000000" points="557.5842,-1010.25 548.6925,-1016.0109 559.236,-1017.0524 557.5842,-1010.25"/>
</g>
<!-- \\IcyData\\NHL\\Resource\\Builder\\Teams\\Get -->
<g id="node6" class="node">
<title>\\IcyData\\NHL\\Resource\\Builder\\Teams\\Get</title>
<polygon fill="none" stroke="#000000" points="695.1668,-951 641.1668,-951 641.1668,-915 695.1668,-915 695.1668,-951"/>
<text text-anchor="middle" x="668.1668" y="-929.7" font-family="Courier,monospace" font-size="11.00" fill="#000000">Get</text>
</g>
<!-- \\IcyData\\NHL\\Resource\\Builder\\Teams\\Get&#45;&gt;\\IcyData\\NHL\\Resource\\Builder -->
<g id="edge15" class="edge">
<title>\\IcyData\\NHL\\Resource\\Builder\\Teams\\Get&#45;&gt;\\IcyData\\NHL\\Resource\\Builder</title>
<path fill="none" stroke="#000000" d="M641.1245,-943.6187C630.4972,-948.1716 618.3543,-953.8566 607.8609,-960 582.0837,-975.0913 577.0609,-984.5957 550.6916,-1002.357"/>
<polygon fill="none" stroke="#000000" points="548.6904,-999.4834 542.2181,-1007.8715 552.5087,-1005.3504 548.6904,-999.4834"/>
</g>
<!-- \\IcyData\\NHL\\Resource\\Builder\\Conferences\\Get -->
<g id="node7" class="node">
<title>\\IcyData\\NHL\\Resource\\Builder\\Conferences\\Get</title>
<polygon fill="none" stroke="#000000" points="695.1668,-872 641.1668,-872 641.1668,-836 695.1668,-836 695.1668,-872"/>
<text text-anchor="middle" x="668.1668" y="-850.7" font-family="Courier,monospace" font-size="11.00" fill="#000000">Get</text>
</g>
<!-- \\IcyData\\NHL\\Resource\\Builder\\Conferences\\Get&#45;&gt;\\IcyData\\NHL\\Resource\\Builder -->
<g id="edge16" class="edge">
<title>\\IcyData\\NHL\\Resource\\Builder\\Conferences\\Get&#45;&gt;\\IcyData\\NHL\\Resource\\Builder</title>
<path fill="none" stroke="#000000" d="M641.7346,-872.1907C630.4794,-880.7273 617.7058,-891.5388 607.8609,-903 576.0625,-940.0187 584.7335,-964.6745 551.3634,-1000.529"/>
<polygon fill="none" stroke="#000000" points="548.6559,-998.2889 544.1044,-1007.8563 553.6287,-1003.2155 548.6559,-998.2889"/>
</g>
<!-- \\IcyData\\NHL\\Resource\\Builder\\Conferences\\ListBuilder -->
<g id="node8" class="node">
<title>\\IcyData\\NHL\\Resource\\Builder\\Conferences\\ListBuilder</title>
<polygon fill="none" stroke="#000000" points="712.2795,-818 624.0541,-818 624.0541,-782 712.2795,-782 712.2795,-818"/>
<text text-anchor="middle" x="668.1668" y="-796.7" font-family="Courier,monospace" font-size="11.00" fill="#000000">ListBuilder</text>
</g>
<!-- \\IcyData\\NHL\\Resource\\Builder\\Conferences\\ListBuilder&#45;&gt;\\IcyData\\NHL\\Resource\\Builder -->
<g id="edge21" class="edge">
<title>\\IcyData\\NHL\\Resource\\Builder\\Conferences\\ListBuilder&#45;&gt;\\IcyData\\NHL\\Resource\\Builder</title>
<path fill="none" stroke="#000000" d="M623.7656,-814.6252C617.8699,-817.9901 612.3302,-822.0713 607.8609,-827 554.416,-885.9378 598.1415,-936.2973 551.3468,-999.6612"/>
<polygon fill="none" stroke="#000000" points="548.3101,-997.8571 544.8311,-1007.8645 553.7914,-1002.2108 548.3101,-997.8571"/>
</g>
<!-- \\IcyData\\NHL\\Resource\\Draft -->
<g id="node9" class="node">
<title>\\IcyData\\NHL\\Resource\\Draft</title>
<polygon fill="none" stroke="#000000" points="695.1668,-1448 641.1668,-1448 641.1668,-1412 695.1668,-1412 695.1668,-1448"/>
<text text-anchor="middle" x="668.1668" y="-1426.7" font-family="Courier,monospace" font-size="11.00" fill="#000000">Draft</text>
</g>
<!-- \\IcyData\\NHL\\Resource -->
<g id="node24" class="node">
<title>\\IcyData\\NHL\\Resource</title>
<polygon fill="none" stroke="#000000" points="548.5657,-1519 466.5442,-1519 466.5442,-1483 548.5657,-1483 548.5657,-1519"/>
<text text-anchor="start" x="474.5496" y="-1503.2" font-family="Courier,monospace" font-size="11.00" fill="#000000">«abstract»</text>
<text text-anchor="start" x="481.1507" y="-1492.2" font-family="Courier,monospace" font-size="11.00" fill="#000000">Resource</text>
</g>
<!-- \\IcyData\\NHL\\Resource\\Draft&#45;&gt;\\IcyData\\NHL\\Resource -->
<g id="edge5" class="edge">
<title>\\IcyData\\NHL\\Resource\\Draft&#45;&gt;\\IcyData\\NHL\\Resource</title>
<path fill="none" stroke="#000000" d="M640.9212,-1442.0442C618.2644,-1452.0598 585.4085,-1466.5841 557.978,-1478.71"/>
<polygon fill="none" stroke="#000000" points="556.2584,-1475.6434 548.5273,-1482.8878 559.0887,-1482.0457 556.2584,-1475.6434"/>
</g>
<!-- \\IcyData\\NHL\\Resource\\People -->
<g id="node11" class="node">
<title>\\IcyData\\NHL\\Resource\\People</title>
<polygon fill="none" stroke="#000000" points="695.7746,-1394 640.559,-1394 640.559,-1358 695.7746,-1358 695.7746,-1394"/>
<text text-anchor="middle" x="668.1668" y="-1372.7" font-family="Courier,monospace" font-size="11.00" fill="#000000">People</text>
</g>
<!-- \\IcyData\\NHL\\Resource\\People&#45;&gt;\\IcyData\\NHL\\Resource -->
<g id="edge17" class="edge">
<title>\\IcyData\\NHL\\Resource\\People&#45;&gt;\\IcyData\\NHL\\Resource</title>
<path fill="none" stroke="#000000" d="M640.4793,-1385.0994C629.6434,-1389.4714 617.5229,-1395.4302 607.8609,-1403 576.6385,-1427.4617 580.479,-1448.1039 551.2028,-1476.046"/>
<polygon fill="none" stroke="#000000" points="548.6307,-1473.6497 543.488,-1482.9128 553.2848,-1478.8785 548.6307,-1473.6497"/>
</g>
<!-- \\IcyData\\NHL\\NHLObject\\Roster -->
<g id="node12" class="node">
<title>\\IcyData\\NHL\\NHLObject\\Roster</title>
<polygon fill="none" stroke="#000000" points="695.7746,-723 640.559,-723 640.559,-687 695.7746,-687 695.7746,-723"/>
<text text-anchor="middle" x="668.1668" y="-701.7" font-family="Courier,monospace" font-size="11.00" fill="#000000">Roster</text>
</g>
<!-- \\IcyData\\NHL\\NHLObject -->
<g id="node23" class="node">
<title>\\IcyData\\NHL\\NHLObject</title>
<polygon fill="none" stroke="#000000" points="548.5657,-480 466.5442,-480 466.5442,-444 548.5657,-444 548.5657,-480"/>
<text text-anchor="start" x="474.5496" y="-464.2" font-family="Courier,monospace" font-size="11.00" fill="#000000">«abstract»</text>
<text text-anchor="start" x="477.8502" y="-453.2" font-family="Courier,monospace" font-size="11.00" fill="#000000">NHLObject</text>
</g>
<!-- \\IcyData\\NHL\\NHLObject\\Roster&#45;&gt;\\IcyData\\NHL\\NHLObject -->
<g id="edge4" class="edge">
<title>\\IcyData\\NHL\\NHLObject\\Roster&#45;&gt;\\IcyData\\NHL\\NHLObject</title>
<path fill="none" stroke="#000000" d="M640.4615,-697.3172C629.2424,-693.0919 616.8447,-686.8608 607.8609,-678 553.3563,-624.2421 525.2229,-535.254 513.8261,-490.1189"/>
<polygon fill="none" stroke="#000000" points="517.1659,-489.0403 511.4028,-480.15 510.3639,-490.6937 517.1659,-489.0403"/>
</g>
<!-- \\IcyData\\NHL\\NHLObject\\Venue -->
<g id="node13" class="node">
<title>\\IcyData\\NHL\\NHLObject\\Venue</title>
<polygon fill="none" stroke="#000000" points="695.1668,-669 641.1668,-669 641.1668,-633 695.1668,-633 695.1668,-669"/>
<text text-anchor="middle" x="668.1668" y="-647.7" font-family="Courier,monospace" font-size="11.00" fill="#000000">Venue</text>
</g>
<!-- \\IcyData\\NHL\\NHLObject\\Venue&#45;&gt;\\IcyData\\NHL\\NHLObject -->
<g id="edge6" class="edge">
<title>\\IcyData\\NHL\\NHLObject\\Venue&#45;&gt;\\IcyData\\NHL\\NHLObject</title>
<path fill="none" stroke="#000000" d="M640.9628,-642.7776C629.8284,-638.4611 617.3584,-632.3078 607.8609,-624 564.5056,-586.0759 533.7225,-524.7921 518.4674,-489.4728"/>
<polygon fill="none" stroke="#000000" points="521.6862,-488.0978 514.5789,-480.2404 515.235,-490.8149 521.6862,-488.0978"/>
</g>
<!-- \\IcyData\\NHL\\NHLObject\\Prospect -->
<g id="node14" class="node">
<title>\\IcyData\\NHL\\NHLObject\\Prospect</title>
<polygon fill="none" stroke="#000000" points="702.4757,-615 633.8579,-615 633.8579,-579 702.4757,-579 702.4757,-615"/>
<text text-anchor="middle" x="668.1668" y="-593.7" font-family="Courier,monospace" font-size="11.00" fill="#000000">Prospect</text>
</g>
<!-- \\IcyData\\NHL\\NHLObject\\Prospect&#45;&gt;\\IcyData\\NHL\\NHLObject -->
<g id="edge7" class="edge">
<title>\\IcyData\\NHL\\NHLObject\\Prospect&#45;&gt;\\IcyData\\NHL\\NHLObject</title>
<path fill="none" stroke="#000000" d="M633.6867,-584.4127C624.8797,-580.4475 615.6941,-575.6116 607.8609,-570 575.6238,-546.9059 545.6594,-512.1957 527.0292,-488.3956"/>
<polygon fill="none" stroke="#000000" points="529.5669,-485.9541 520.6951,-480.1625 524.0188,-490.2225 529.5669,-485.9541"/>
</g>
<!-- \\IcyData\\NHL\\NHLObject\\Person -->
<g id="node15" class="node">
<title>\\IcyData\\NHL\\NHLObject\\Person</title>
<polygon fill="none" stroke="#000000" points="695.7746,-561 640.559,-561 640.559,-525 695.7746,-525 695.7746,-561"/>
<text text-anchor="middle" x="668.1668" y="-539.7" font-family="Courier,monospace" font-size="11.00" fill="#000000">Person</text>
</g>
<!-- \\IcyData\\NHL\\NHLObject\\Person&#45;&gt;\\IcyData\\NHL\\NHLObject -->
<g id="edge8" class="edge">
<title>\\IcyData\\NHL\\NHLObject\\Person&#45;&gt;\\IcyData\\NHL\\NHLObject</title>
<path fill="none" stroke="#000000" d="M640.3498,-531.053C630.0648,-526.5032 618.3587,-521.1673 607.8609,-516 588.2174,-506.331 566.8058,-494.9265 548.8286,-485.0955"/>
<polygon fill="none" stroke="#000000" points="550.2177,-481.8652 539.7683,-480.1155 546.8458,-487.9996 550.2177,-481.8652"/>
</g>
<!-- \\IcyData\\NHL\\NHLObject\\Division -->
<g id="node16" class="node">
<title>\\IcyData\\NHL\\NHLObject\\Division</title>
<polygon fill="none" stroke="#000000" points="702.4757,-507 633.8579,-507 633.8579,-471 702.4757,-471 702.4757,-507"/>
<text text-anchor="middle" x="668.1668" y="-485.7" font-family="Courier,monospace" font-size="11.00" fill="#000000">Division</text>
</g>
<!-- \\IcyData\\NHL\\NHLObject\\Division&#45;&gt;\\IcyData\\NHL\\NHLObject -->
<g id="edge10" class="edge">
<title>\\IcyData\\NHL\\NHLObject\\Division&#45;&gt;\\IcyData\\NHL\\NHLObject</title>
<path fill="none" stroke="#000000" d="M633.7115,-483.2078C611.9355,-479.5471 583.395,-474.7493 558.9691,-470.6431"/>
<polygon fill="none" stroke="#000000" points="559.2264,-467.1373 548.7845,-468.931 558.0659,-474.0404 559.2264,-467.1373"/>
</g>
<!-- \\IcyData\\NHL\\NHLObject\\Conference -->
<g id="node17" class="node">
<title>\\IcyData\\NHL\\NHLObject\\Conference</title>
<polygon fill="none" stroke="#000000" points="709.1776,-453 627.1561,-453 627.1561,-417 709.1776,-417 709.1776,-453"/>
<text text-anchor="middle" x="668.1668" y="-431.7" font-family="Courier,monospace" font-size="11.00" fill="#000000">Conference</text>
</g>
<!-- \\IcyData\\NHL\\NHLObject\\Conference&#45;&gt;\\IcyData\\NHL\\NHLObject -->
<g id="edge11" class="edge">
<title>\\IcyData\\NHL\\NHLObject\\Conference&#45;&gt;\\IcyData\\NHL\\NHLObject</title>
<path fill="none" stroke="#000000" d="M626.8053,-441.9532C606.1038,-445.4332 580.8467,-449.6791 558.9149,-453.366"/>
<polygon fill="none" stroke="#000000" points="558.0577,-449.9609 548.7764,-455.0704 559.2183,-456.8641 558.0577,-449.9609"/>
</g>
<!-- \\IcyData\\NHL\\NHLObject\\Franchise -->
<g id="node18" class="node">
<title>\\IcyData\\NHL\\NHLObject\\Franchise</title>
<polygon fill="none" stroke="#000000" points="706.0776,-399 630.256,-399 630.256,-363 706.0776,-363 706.0776,-399"/>
<text text-anchor="middle" x="668.1668" y="-377.7" font-family="Courier,monospace" font-size="11.00" fill="#000000">Franchise</text>
</g>
<!-- \\IcyData\\NHL\\NHLObject\\Franchise&#45;&gt;\\IcyData\\NHL\\NHLObject -->
<g id="edge13" class="edge">
<title>\\IcyData\\NHL\\NHLObject\\Franchise&#45;&gt;\\IcyData\\NHL\\NHLObject</title>
<path fill="none" stroke="#000000" d="M630.3314,-397.4318C622.8387,-400.8282 615.0653,-404.4538 607.8609,-408 588.2174,-417.669 566.8058,-429.0735 548.8286,-438.9045"/>
<polygon fill="none" stroke="#000000" points="546.8458,-436.0004 539.7683,-443.8845 550.2177,-442.1348 546.8458,-436.0004"/>
</g>
<!-- \\IcyData\\NHL\\NHLObject\\DraftPick -->
<g id="node19" class="node">
<title>\\IcyData\\NHL\\NHLObject\\DraftPick</title>
<polygon fill="none" stroke="#000000" points="706.0776,-345 630.256,-345 630.256,-309 706.0776,-309 706.0776,-345"/>
<text text-anchor="middle" x="668.1668" y="-323.7" font-family="Courier,monospace" font-size="11.00" fill="#000000">DraftPick</text>
</g>
<!-- \\IcyData\\NHL\\NHLObject\\DraftPick&#45;&gt;\\IcyData\\NHL\\NHLObject -->
<g id="edge14" class="edge">
<title>\\IcyData\\NHL\\NHLObject\\DraftPick&#45;&gt;\\IcyData\\NHL\\NHLObject</title>
<path fill="none" stroke="#000000" d="M630.2112,-341.1896C622.4971,-344.8323 614.6683,-349.1233 607.8609,-354 575.6238,-377.0941 545.6594,-411.8043 527.0292,-435.6044"/>
<polygon fill="none" stroke="#000000" points="524.0188,-433.7775 520.6951,-443.8375 529.5669,-438.0459 524.0188,-433.7775"/>
</g>
<!-- \\IcyData\\NHL\\NHLObject\\Team -->
<g id="node20" class="node">
<title>\\IcyData\\NHL\\NHLObject\\Team</title>
<polygon fill="none" stroke="#000000" points="695.1668,-291 641.1668,-291 641.1668,-255 695.1668,-255 695.1668,-291"/>
<text text-anchor="middle" x="668.1668" y="-269.7" font-family="Courier,monospace" font-size="11.00" fill="#000000">Team</text>
</g>
<!-- \\IcyData\\NHL\\NHLObject\\Team&#45;&gt;\\IcyData\\NHL\\NHLObject -->
<g id="edge18" class="edge">
<title>\\IcyData\\NHL\\NHLObject\\Team&#45;&gt;\\IcyData\\NHL\\NHLObject</title>
<path fill="none" stroke="#000000" d="M640.9628,-281.2224C629.8284,-285.5389 617.3584,-291.6922 607.8609,-300 564.5056,-337.9241 533.7225,-399.2079 518.4674,-434.5272"/>
<polygon fill="none" stroke="#000000" points="515.235,-433.1851 514.5789,-443.7596 521.6862,-435.9022 515.235,-433.1851"/>
</g>
<!-- \\IcyData\\NHL\\NHLObject\\Player -->
<g id="node21" class="node">
<title>\\IcyData\\NHL\\NHLObject\\Player</title>
<polygon fill="none" stroke="#000000" points="695.7746,-237 640.559,-237 640.559,-201 695.7746,-201 695.7746,-237"/>
<text text-anchor="middle" x="668.1668" y="-215.7" font-family="Courier,monospace" font-size="11.00" fill="#000000">Player</text>
</g>
<!-- \\IcyData\\NHL\\NHLObject\\Player&#45;&gt;\\IcyData\\NHL\\NHLObject -->
<g id="edge19" class="edge">
<title>\\IcyData\\NHL\\NHLObject\\Player&#45;&gt;\\IcyData\\NHL\\NHLObject</title>
<path fill="none" stroke="#000000" d="M640.4615,-226.6828C629.2424,-230.9081 616.8447,-237.1392 607.8609,-246 553.3563,-299.7579 525.2229,-388.746 513.8261,-433.8811"/>
<polygon fill="none" stroke="#000000" points="510.3639,-433.3063 511.4028,-443.85 517.1659,-434.9597 510.3639,-433.3063"/>
</g>
<!-- \\IcyData\\NHL\\Exception\\NHLException -->
<g id="node22" class="node">
<title>\\IcyData\\NHL\\Exception\\NHLException</title>
<polygon fill="none" stroke="#000000" points="715.8799,-158 620.4537,-158 620.4537,-122 715.8799,-122 715.8799,-158"/>
<text text-anchor="middle" x="668.1668" y="-136.7" font-family="Courier,monospace" font-size="11.00" fill="#000000">NHLException</text>
</g>
<!-- \\Exception -->
<g id="node27" class="node">
<title>\\Exception</title>
<ellipse fill="none" stroke="#000000" cx="507.555" cy="-18" rx="40.6162" ry="18"/>
<text text-anchor="middle" x="507.555" y="-13.8" font-family="Times,serif" font-size="14.00" fill="#c0c0c0">xception</text>
</g>
<!-- \\IcyData\\NHL\\Exception\\NHLException&#45;&gt;\\Exception -->
<g id="edge20" class="edge">
<title>\\IcyData\\NHL\\Exception\\NHLException&#45;&gt;\\Exception</title>
<path fill="none" stroke="#000000" d="M620.4127,-124.9493C616.0355,-122.8725 611.7795,-120.5602 607.8609,-118 575.9396,-97.1442 575.7345,-82.7489 548.5604,-56 543.6342,-51.1509 538.2753,-46.0588 533.1058,-41.2343"/>
<polygon fill="none" stroke="#000000" points="535.4562,-38.6406 525.7398,-34.4167 530.7013,-43.7779 535.4562,-38.6406"/>
</g>
<!-- \\Symfony\\Component\\HttpFoundation\\ParameterBag -->
<g id="node26" class="node">
<title>\\Symfony\\Component\\HttpFoundation\\ParameterBag</title>
<ellipse fill="none" stroke="#000000" cx="197.2748" cy="-462" rx="197.0499" ry="18"/>
<text text-anchor="middle" x="197.2748" y="-457.8" font-family="Times,serif" font-size="14.00" fill="#c0c0c0">\Symfony\ComponentHttpFoundation\ParameterBag</text>
</g>
<!-- \\IcyData\\NHL\\NHLObject&#45;&gt;\\Symfony\\Component\\HttpFoundation\\ParameterBag -->
<g id="edge9" class="edge">
<title>\\IcyData\\NHL\\NHLObject&#45;&gt;\\Symfony\\Component\\HttpFoundation\\ParameterBag</title>
<path fill="none" stroke="#000000" d="M466.3522,-462C449.264,-462 428.0656,-462 405.1217,-462"/>
<polygon fill="none" stroke="#000000" points="404.8289,-458.5001 394.8288,-462 404.8288,-465.5001 404.8289,-458.5001"/>
</g>
<!-- \\IcyData\\NHL\\Client -->
<g id="node25" class="node">
<title>\\IcyData\\NHL\\Client</title>
<polygon fill="none" stroke="#000000" points="695.7746,-104 640.559,-104 640.559,-68 695.7746,-68 695.7746,-104"/>
<text text-anchor="middle" x="668.1668" y="-82.7" font-family="Courier,monospace" font-size="11.00" fill="#000000">Client</text>
</g>
</g>
</svg>
