<?xml version="1.0" encoding="UTF-8" standalone="no"?>
<!DOCTYPE svg PUBLIC "-//W3C//DTD SVG 1.1//EN"
 "http://www.w3.org/Graphics/SVG/1.1/DTD/svg11.dtd">
<!-- Generated by graphviz version 2.40.1 (20161225.0304)
 -->
<!-- Title: G Pages: 1 -->
<svg width="776pt" height="1331pt"
 viewBox="0.00 0.00 776.47 1331.00" xmlns="http://www.w3.org/2000/svg" xmlns:xlink="http://www.w3.org/1999/xlink">
<g id="graph0" class="graph" transform="scale(1 1) rotate(0) translate(4 1327)">
<title>G</title>
<polygon fill="#ffffff" stroke="transparent" points="-4,4 -4,-1327 772.4727,-1327 772.4727,4 -4,4"/>
<g id="clust1" class="cluster">
<title>cluster_Global</title>
<path fill="none" stroke="#c0c0c0" d="M446.5496,-44C446.5496,-44 748.4727,-44 748.4727,-44 754.4727,-44 760.4727,-50 760.4727,-56 760.4727,-56 760.4727,-1303 760.4727,-1303 760.4727,-1309 754.4727,-1315 748.4727,-1315 748.4727,-1315 446.5496,-1315 446.5496,-1315 440.5496,-1315 434.5496,-1309 434.5496,-1303 434.5496,-1303 434.5496,-56 434.5496,-56 434.5496,-50 440.5496,-44 446.5496,-44"/>
<text text-anchor="middle" x="597.5112" y="-1302.2" font-family="Times,serif" font-size="11.00" fill="#c0c0c0">Global</text>
</g>
<g id="clust2" class="cluster">
<title>cluster_\IcyData</title>
<path fill="none" stroke="#c0c0c0" d="M454.5496,-52C454.5496,-52 740.4727,-52 740.4727,-52 746.4727,-52 752.4727,-58 752.4727,-64 752.4727,-64 752.4727,-1276 752.4727,-1276 752.4727,-1282 746.4727,-1288 740.4727,-1288 740.4727,-1288 454.5496,-1288 454.5496,-1288 448.5496,-1288 442.5496,-1282 442.5496,-1276 442.5496,-1276 442.5496,-64 442.5496,-64 442.5496,-58 448.5496,-52 454.5496,-52"/>
<text text-anchor="middle" x="597.5112" y="-1275.2" font-family="Times,serif" font-size="11.00" fill="#c0c0c0">IcyData</text>
</g>
<g id="clust3" class="cluster">
<title>cluster_\IcyData\NHL</title>
<path fill="none" stroke="#c0c0c0" d="M462.5496,-60C462.5496,-60 732.4727,-60 732.4727,-60 738.4727,-60 744.4727,-66 744.4727,-72 744.4727,-72 744.4727,-1249 744.4727,-1249 744.4727,-1255 738.4727,-1261 732.4727,-1261 732.4727,-1261 462.5496,-1261 462.5496,-1261 456.5496,-1261 450.5496,-1255 450.5496,-1249 450.5496,-1249 450.5496,-72 450.5496,-72 450.5496,-66 456.5496,-60 462.5496,-60"/>
<text text-anchor="middle" x="597.5112" y="-1248.2" font-family="Times,serif" font-size="11.00" fill="#c0c0c0">NHL</text>
</g>
<g id="clust4" class="cluster">
<title>cluster_\IcyData\NHL\Object</title>
<path fill="none" stroke="#c0c0c0" d="M631.1614,-785C631.1614,-785 705.1722,-785 705.1722,-785 711.1722,-785 717.1722,-791 717.1722,-797 717.1722,-797 717.1722,-1222 717.1722,-1222 717.1722,-1228 711.1722,-1234 705.1722,-1234 705.1722,-1234 631.1614,-1234 631.1614,-1234 625.1614,-1234 619.1614,-1228 619.1614,-1222 619.1614,-1222 619.1614,-797 619.1614,-797 619.1614,-791 625.1614,-785 631.1614,-785"/>
<text text-anchor="middle" x="668.1668" y="-1221.2" font-family="Times,serif" font-size="11.00" fill="#c0c0c0">Object</text>
</g>
<g id="clust5" class="cluster">
<title>cluster_\IcyData\NHL\Resource</title>
<path fill="none" stroke="#c0c0c0" d="M470.5496,-193C470.5496,-193 724.4727,-193 724.4727,-193 730.4727,-193 736.4727,-199 736.4727,-205 736.4727,-205 736.4727,-765 736.4727,-765 736.4727,-771 730.4727,-777 724.4727,-777 724.4727,-777 470.5496,-777 470.5496,-777 464.5496,-777 458.5496,-771 458.5496,-765 458.5496,-765 458.5496,-205 458.5496,-205 458.5496,-199 464.5496,-193 470.5496,-193"/>
<text text-anchor="middle" x="597.5112" y="-764.2" font-family="Times,serif" font-size="11.00" fill="#c0c0c0">Resource</text>
</g>
<g id="clust6" class="cluster">
<title>cluster_\IcyData\NHL\Resource\Builder</title>
<path fill="none" stroke="#c0c0c0" d="M619.8609,-201C619.8609,-201 716.4727,-201 716.4727,-201 722.4727,-201 728.4727,-207 728.4727,-213 728.4727,-213 728.4727,-694 728.4727,-694 728.4727,-700 722.4727,-706 716.4727,-706 716.4727,-706 619.8609,-706 619.8609,-706 613.8609,-706 607.8609,-700 607.8609,-694 607.8609,-694 607.8609,-213 607.8609,-213 607.8609,-207 613.8609,-201 619.8609,-201"/>
<text text-anchor="middle" x="668.1668" y="-693.2" font-family="Times,serif" font-size="11.00" fill="#c0c0c0">Builder</text>
</g>
<g id="clust7" class="cluster">
<title>cluster_\IcyData\NHL\Resource\Builder\Divisions</title>
<path fill="none" stroke="#c0c0c0" d="M627.8609,-554C627.8609,-554 708.4727,-554 708.4727,-554 714.4727,-554 720.4727,-560 720.4727,-566 720.4727,-566 720.4727,-667 720.4727,-667 720.4727,-673 714.4727,-679 708.4727,-679 708.4727,-679 627.8609,-679 627.8609,-679 621.8609,-679 615.8609,-673 615.8609,-667 615.8609,-667 615.8609,-566 615.8609,-566 615.8609,-560 621.8609,-554 627.8609,-554"/>
<text text-anchor="middle" x="668.1668" y="-666.2" font-family="Times,serif" font-size="11.00" fill="#c0c0c0">Divisions</text>
</g>
<g id="clust8" class="cluster">
<title>cluster_\IcyData\NHL\Resource\Builder\Teams</title>
<path fill="none" stroke="#c0c0c0" d="M627.8609,-421C627.8609,-421 708.4727,-421 708.4727,-421 714.4727,-421 720.4727,-427 720.4727,-433 720.4727,-433 720.4727,-534 720.4727,-534 720.4727,-540 714.4727,-546 708.4727,-546 708.4727,-546 627.8609,-546 627.8609,-546 621.8609,-546 615.8609,-540 615.8609,-534 615.8609,-534 615.8609,-433 615.8609,-433 615.8609,-427 621.8609,-421 627.8609,-421"/>
<text text-anchor="middle" x="668.1668" y="-533.2" font-family="Times,serif" font-size="11.00" fill="#c0c0c0">Teams</text>
</g>
<g id="clust9" class="cluster">
<title>cluster_\IcyData\NHL\Resource\Builder\Conferences</title>
<path fill="none" stroke="#c0c0c0" d="M627.8609,-288C627.8609,-288 708.4727,-288 708.4727,-288 714.4727,-288 720.4727,-294 720.4727,-300 720.4727,-300 720.4727,-401 720.4727,-401 720.4727,-407 714.4727,-413 708.4727,-413 708.4727,-413 627.8609,-413 627.8609,-413 621.8609,-413 615.8609,-407 615.8609,-401 615.8609,-401 615.8609,-300 615.8609,-300 615.8609,-294 621.8609,-288 627.8609,-288"/>
<text text-anchor="middle" x="668.1668" y="-400.2" font-family="Times,serif" font-size="11.00" fill="#c0c0c0">Conferences</text>
</g>
<g id="clust10" class="cluster">
<title>cluster_\IcyData\NHL\Resource\Builder\People</title>
<path fill="none" stroke="#c0c0c0" d="M645.1668,-209C645.1668,-209 691.1668,-209 691.1668,-209 697.1668,-209 703.1668,-215 703.1668,-221 703.1668,-221 703.1668,-268 703.1668,-268 703.1668,-274 697.1668,-280 691.1668,-280 691.1668,-280 645.1668,-280 645.1668,-280 639.1668,-280 633.1668,-274 633.1668,-268 633.1668,-268 633.1668,-221 633.1668,-221 633.1668,-215 639.1668,-209 645.1668,-209"/>
<text text-anchor="middle" x="668.1668" y="-267.2" font-family="Times,serif" font-size="11.00" fill="#c0c0c0">People</text>
</g>
<g id="clust11" class="cluster">
<title>cluster_\IcyData\NHL\Exception</title>
<path fill="none" stroke="#c0c0c0" d="M624.5604,-114C624.5604,-114 711.7733,-114 711.7733,-114 717.7733,-114 723.7733,-120 723.7733,-126 723.7733,-126 723.7733,-173 723.7733,-173 723.7733,-179 717.7733,-185 711.7733,-185 711.7733,-185 624.5604,-185 624.5604,-185 618.5604,-185 612.5604,-179 612.5604,-173 612.5604,-173 612.5604,-126 612.5604,-126 612.5604,-120 618.5604,-114 624.5604,-114"/>
<text text-anchor="middle" x="668.1668" y="-172.2" font-family="Times,serif" font-size="11.00" fill="#c0c0c0">Exception</text>
</g>
<!-- \\IcyData\\NHL\\Object\\Franchise -->
<g id="node1" class="node">
<title>\\IcyData\\NHL\\Object\\Franchise</title>
<polygon fill="none" stroke="#000000" points="706.0776,-1207 630.256,-1207 630.256,-1171 706.0776,-1171 706.0776,-1207"/>
<text text-anchor="middle" x="668.1668" y="-1185.7" font-family="Courier,monospace" font-size="11.00" fill="#000000">Franchise</text>
</g>
<!-- \\IcyData\\NHL\\Object -->
<g id="node19" class="node">
<title>\\IcyData\\NHL\\Object</title>
<polygon fill="none" stroke="#000000" points="548.5657,-1018 466.5442,-1018 466.5442,-982 548.5657,-982 548.5657,-1018"/>
<text text-anchor="start" x="474.5496" y="-1002.2" font-family="Courier,monospace" font-size="11.00" fill="#000000">«abstract»</text>
<text text-anchor="start" x="487.7518" y="-991.2" font-family="Courier,monospace" font-size="11.00" fill="#000000">Object</text>
</g>
<!-- \\IcyData\\NHL\\Object\\Franchise&#45;&gt;\\IcyData\\NHL\\Object -->
<g id="edge2" class="edge">
<title>\\IcyData\\NHL\\Object\\Franchise&#45;&gt;\\IcyData\\NHL\\Object</title>
<path fill="none" stroke="#000000" d="M630.3826,-1176.2392C622.4037,-1172.4514 614.4228,-1167.7399 607.8609,-1162 564.5056,-1124.0759 533.7225,-1062.7921 518.4674,-1027.4728"/>
<polygon fill="none" stroke="#000000" points="521.6862,-1026.0978 514.5789,-1018.2404 515.235,-1028.8149 521.6862,-1026.0978"/>
</g>
<!-- \\IcyData\\NHL\\Object\\Roster -->
<g id="node2" class="node">
<title>\\IcyData\\NHL\\Object\\Roster</title>
<polygon fill="none" stroke="#000000" points="695.7746,-1153 640.559,-1153 640.559,-1117 695.7746,-1117 695.7746,-1153"/>
<text text-anchor="middle" x="668.1668" y="-1131.7" font-family="Courier,monospace" font-size="11.00" fill="#000000">Roster</text>
</g>
<!-- \\IcyData\\NHL\\Object\\Roster&#45;&gt;\\IcyData\\NHL\\Object -->
<g id="edge4" class="edge">
<title>\\IcyData\\NHL\\Object\\Roster&#45;&gt;\\IcyData\\NHL\\Object</title>
<path fill="none" stroke="#000000" d="M640.4976,-1125.3473C629.7839,-1120.9275 617.7457,-1115.0813 607.8609,-1108 575.6238,-1084.9059 545.6594,-1050.1957 527.0292,-1026.3956"/>
<polygon fill="none" stroke="#000000" points="529.5669,-1023.9541 520.6951,-1018.1625 524.0188,-1028.2225 529.5669,-1023.9541"/>
</g>
<!-- \\IcyData\\NHL\\Object\\Division -->
<g id="node3" class="node">
<title>\\IcyData\\NHL\\Object\\Division</title>
<polygon fill="none" stroke="#000000" points="702.4757,-1099 633.8579,-1099 633.8579,-1063 702.4757,-1063 702.4757,-1099"/>
<text text-anchor="middle" x="668.1668" y="-1077.7" font-family="Courier,monospace" font-size="11.00" fill="#000000">Division</text>
</g>
<!-- \\IcyData\\NHL\\Object\\Division&#45;&gt;\\IcyData\\NHL\\Object -->
<g id="edge5" class="edge">
<title>\\IcyData\\NHL\\Object\\Division&#45;&gt;\\IcyData\\NHL\\Object</title>
<path fill="none" stroke="#000000" d="M633.8395,-1066.1512C625.2959,-1062.3132 616.1974,-1058.1034 607.8609,-1054 588.2174,-1044.331 566.8058,-1032.9265 548.8286,-1023.0955"/>
<polygon fill="none" stroke="#000000" points="550.2177,-1019.8652 539.7683,-1018.1155 546.8458,-1025.9996 550.2177,-1019.8652"/>
</g>
<!-- \\IcyData\\NHL\\Object\\Conference -->
<g id="node4" class="node">
<title>\\IcyData\\NHL\\Object\\Conference</title>
<polygon fill="none" stroke="#000000" points="709.1776,-1045 627.1561,-1045 627.1561,-1009 709.1776,-1009 709.1776,-1045"/>
<text text-anchor="middle" x="668.1668" y="-1023.7" font-family="Courier,monospace" font-size="11.00" fill="#000000">Conference</text>
</g>
<!-- \\IcyData\\NHL\\Object\\Conference&#45;&gt;\\IcyData\\NHL\\Object -->
<g id="edge6" class="edge">
<title>\\IcyData\\NHL\\Object\\Conference&#45;&gt;\\IcyData\\NHL\\Object</title>
<path fill="none" stroke="#000000" d="M626.8053,-1020.0468C606.1038,-1016.5668 580.8467,-1012.3209 558.9149,-1008.634"/>
<polygon fill="none" stroke="#000000" points="559.2183,-1005.1359 548.7764,-1006.9296 558.0577,-1012.0391 559.2183,-1005.1359"/>
</g>
<!-- \\IcyData\\NHL\\Object\\Team -->
<g id="node5" class="node">
<title>\\IcyData\\NHL\\Object\\Team</title>
<polygon fill="none" stroke="#000000" points="695.1668,-991 641.1668,-991 641.1668,-955 695.1668,-955 695.1668,-991"/>
<text text-anchor="middle" x="668.1668" y="-969.7" font-family="Courier,monospace" font-size="11.00" fill="#000000">Team</text>
</g>
<!-- \\IcyData\\NHL\\Object\\Team&#45;&gt;\\IcyData\\NHL\\Object -->
<g id="edge7" class="edge">
<title>\\IcyData\\NHL\\Object\\Team&#45;&gt;\\IcyData\\NHL\\Object</title>
<path fill="none" stroke="#000000" d="M640.9212,-977.5802C618.5417,-981.3423 586.211,-986.7774 558.9873,-991.3539"/>
<polygon fill="none" stroke="#000000" points="558.1164,-987.9511 548.835,-993.0605 559.2769,-994.8542 558.1164,-987.9511"/>
</g>
<!-- \\IcyData\\NHL\\Object\\Player -->
<g id="node6" class="node">
<title>\\IcyData\\NHL\\Object\\Player</title>
<polygon fill="none" stroke="#000000" points="695.7746,-937 640.559,-937 640.559,-901 695.7746,-901 695.7746,-937"/>
<text text-anchor="middle" x="668.1668" y="-915.7" font-family="Courier,monospace" font-size="11.00" fill="#000000">Player</text>
</g>
<!-- \\IcyData\\NHL\\Object\\Player&#45;&gt;\\IcyData\\NHL\\Object -->
<g id="edge9" class="edge">
<title>\\IcyData\\NHL\\Object\\Player&#45;&gt;\\IcyData\\NHL\\Object</title>
<path fill="none" stroke="#000000" d="M640.3498,-930.947C630.0648,-935.4968 618.3587,-940.8327 607.8609,-946 588.2174,-955.669 566.8058,-967.0735 548.8286,-976.9045"/>
<polygon fill="none" stroke="#000000" points="546.8458,-974.0004 539.7683,-981.8845 550.2177,-980.1348 546.8458,-974.0004"/>
</g>
<!-- \\IcyData\\NHL\\Object\\Person -->
<g id="node7" class="node">
<title>\\IcyData\\NHL\\Object\\Person</title>
<polygon fill="none" stroke="#000000" points="695.7746,-883 640.559,-883 640.559,-847 695.7746,-847 695.7746,-883"/>
<text text-anchor="middle" x="668.1668" y="-861.7" font-family="Courier,monospace" font-size="11.00" fill="#000000">Person</text>
</g>
<!-- \\IcyData\\NHL\\Object\\Person&#45;&gt;\\IcyData\\NHL\\Object -->
<g id="edge13" class="edge">
<title>\\IcyData\\NHL\\Object\\Person&#45;&gt;\\IcyData\\NHL\\Object</title>
<path fill="none" stroke="#000000" d="M640.4976,-874.6527C629.7839,-879.0725 617.7457,-884.9187 607.8609,-892 575.6238,-915.0941 545.6594,-949.8043 527.0292,-973.6044"/>
<polygon fill="none" stroke="#000000" points="524.0188,-971.7775 520.6951,-981.8375 529.5669,-976.0459 524.0188,-971.7775"/>
</g>
<!-- \\IcyData\\NHL\\Object\\Venue -->
<g id="node8" class="node">
<title>\\IcyData\\NHL\\Object\\Venue</title>
<polygon fill="none" stroke="#000000" points="695.1668,-829 641.1668,-829 641.1668,-793 695.1668,-793 695.1668,-829"/>
<text text-anchor="middle" x="668.1668" y="-807.7" font-family="Courier,monospace" font-size="11.00" fill="#000000">Venue</text>
</g>
<!-- \\IcyData\\NHL\\Object\\Venue&#45;&gt;\\IcyData\\NHL\\Object -->
<g id="edge15" class="edge">
<title>\\IcyData\\NHL\\Object\\Venue&#45;&gt;\\IcyData\\NHL\\Object</title>
<path fill="none" stroke="#000000" d="M640.9628,-819.2224C629.8284,-823.5389 617.3584,-829.6922 607.8609,-838 564.5056,-875.9241 533.7225,-937.2079 518.4674,-972.5272"/>
<polygon fill="none" stroke="#000000" points="515.235,-971.1851 514.5789,-981.7596 521.6862,-973.9022 515.235,-971.1851"/>
</g>
<!-- \\IcyData\\NHL\\Resource\\Builder\\Divisions\\Get -->
<g id="node9" class="node">
<title>\\IcyData\\NHL\\Resource\\Builder\\Divisions\\Get</title>
<polygon fill="none" stroke="#000000" points="695.1668,-652 641.1668,-652 641.1668,-616 695.1668,-616 695.1668,-652"/>
<text text-anchor="middle" x="668.1668" y="-630.7" font-family="Courier,monospace" font-size="11.00" fill="#000000">Get</text>
</g>
<!-- \\IcyData\\NHL\\Resource\\Builder -->
<g id="node16" class="node">
<title>\\IcyData\\NHL\\Resource\\Builder</title>
<polygon fill="none" stroke="#000000" points="548.5657,-465 466.5442,-465 466.5442,-429 548.5657,-429 548.5657,-465"/>
<text text-anchor="start" x="474.5496" y="-449.2" font-family="Courier,monospace" font-size="11.00" fill="#000000">«abstract»</text>
<text text-anchor="start" x="484.4512" y="-438.2" font-family="Courier,monospace" font-size="11.00" fill="#000000">Builder</text>
</g>
<!-- \\IcyData\\NHL\\Resource\\Builder\\Divisions\\Get&#45;&gt;\\IcyData\\NHL\\Resource\\Builder -->
<g id="edge3" class="edge">
<title>\\IcyData\\NHL\\Resource\\Builder\\Divisions\\Get&#45;&gt;\\IcyData\\NHL\\Resource\\Builder</title>
<path fill="none" stroke="#000000" d="M640.9477,-626.6702C629.5467,-622.4652 616.8768,-616.1531 607.8609,-607 563.3021,-561.7634 590.6772,-522.2446 551.3032,-472.931"/>
<polygon fill="none" stroke="#000000" points="553.8713,-470.5495 544.693,-465.257 548.5676,-475.118 553.8713,-470.5495"/>
</g>
<!-- \\IcyData\\NHL\\Resource\\Builder\\Divisions\\ListBuilder -->
<g id="node10" class="node">
<title>\\IcyData\\NHL\\Resource\\Builder\\Divisions\\ListBuilder</title>
<polygon fill="none" stroke="#000000" points="712.2795,-598 624.0541,-598 624.0541,-562 712.2795,-562 712.2795,-598"/>
<text text-anchor="middle" x="668.1668" y="-576.7" font-family="Courier,monospace" font-size="11.00" fill="#000000">ListBuilder</text>
</g>
<!-- \\IcyData\\NHL\\Resource\\Builder\\Divisions\\ListBuilder&#45;&gt;\\IcyData\\NHL\\Resource\\Builder -->
<g id="edge17" class="edge">
<title>\\IcyData\\NHL\\Resource\\Builder\\Divisions\\ListBuilder&#45;&gt;\\IcyData\\NHL\\Resource\\Builder</title>
<path fill="none" stroke="#000000" d="M625.3667,-561.9442C619.1839,-558.4359 613.1367,-554.4459 607.8609,-550 576.1419,-523.2709 581.2482,-501.5325 551.0319,-471.8939"/>
<polygon fill="none" stroke="#000000" points="553.2762,-469.2032 543.5387,-465.028 548.5472,-474.3643 553.2762,-469.2032"/>
</g>
<!-- \\IcyData\\NHL\\Resource\\Builder\\Teams\\ListBuilder -->
<g id="node11" class="node">
<title>\\IcyData\\NHL\\Resource\\Builder\\Teams\\ListBuilder</title>
<polygon fill="none" stroke="#000000" points="712.2795,-519 624.0541,-519 624.0541,-483 712.2795,-483 712.2795,-519"/>
<text text-anchor="middle" x="668.1668" y="-497.7" font-family="Courier,monospace" font-size="11.00" fill="#000000">ListBuilder</text>
</g>
<!-- \\IcyData\\NHL\\Resource\\Builder\\Teams\\ListBuilder&#45;&gt;\\IcyData\\NHL\\Resource\\Builder -->
<g id="edge8" class="edge">
<title>\\IcyData\\NHL\\Resource\\Builder\\Teams\\ListBuilder&#45;&gt;\\IcyData\\NHL\\Resource\\Builder</title>
<path fill="none" stroke="#000000" d="M623.8538,-486.1013C603.574,-479.283 579.433,-471.1664 558.4155,-464.1"/>
<polygon fill="none" stroke="#000000" points="559.2865,-460.7004 548.6925,-460.831 557.0557,-467.3354 559.2865,-460.7004"/>
</g>
<!-- \\IcyData\\NHL\\Resource\\Builder\\Teams\\Get -->
<g id="node12" class="node">
<title>\\IcyData\\NHL\\Resource\\Builder\\Teams\\Get</title>
<polygon fill="none" stroke="#000000" points="695.1668,-465 641.1668,-465 641.1668,-429 695.1668,-429 695.1668,-465"/>
<text text-anchor="middle" x="668.1668" y="-443.7" font-family="Courier,monospace" font-size="11.00" fill="#000000">Get</text>
</g>
<!-- \\IcyData\\NHL\\Resource\\Builder\\Teams\\Get&#45;&gt;\\IcyData\\NHL\\Resource\\Builder -->
<g id="edge10" class="edge">
<title>\\IcyData\\NHL\\Resource\\Builder\\Teams\\Get&#45;&gt;\\IcyData\\NHL\\Resource\\Builder</title>
<path fill="none" stroke="#000000" d="M640.9212,-447C618.5417,-447 586.211,-447 558.9873,-447"/>
<polygon fill="none" stroke="#000000" points="558.8351,-443.5001 548.835,-447 558.835,-450.5001 558.8351,-443.5001"/>
</g>
<!-- \\IcyData\\NHL\\Resource\\Builder\\Conferences\\Get -->
<g id="node13" class="node">
<title>\\IcyData\\NHL\\Resource\\Builder\\Conferences\\Get</title>
<polygon fill="none" stroke="#000000" points="695.1668,-386 641.1668,-386 641.1668,-350 695.1668,-350 695.1668,-386"/>
<text text-anchor="middle" x="668.1668" y="-364.7" font-family="Courier,monospace" font-size="11.00" fill="#000000">Get</text>
</g>
<!-- \\IcyData\\NHL\\Resource\\Builder\\Conferences\\Get&#45;&gt;\\IcyData\\NHL\\Resource\\Builder -->
<g id="edge11" class="edge">
<title>\\IcyData\\NHL\\Resource\\Builder\\Conferences\\Get&#45;&gt;\\IcyData\\NHL\\Resource\\Builder</title>
<path fill="none" stroke="#000000" d="M640.9212,-381.4013C617.0398,-393.1478 581.8268,-410.468 553.5799,-424.3618"/>
<polygon fill="none" stroke="#000000" points="551.7225,-421.3748 544.294,-428.9292 554.8121,-427.6561 551.7225,-421.3748"/>
</g>
<!-- \\IcyData\\NHL\\Resource\\Builder\\Conferences\\ListBuilder -->
<g id="node14" class="node">
<title>\\IcyData\\NHL\\Resource\\Builder\\Conferences\\ListBuilder</title>
<polygon fill="none" stroke="#000000" points="712.2795,-332 624.0541,-332 624.0541,-296 712.2795,-296 712.2795,-332"/>
<text text-anchor="middle" x="668.1668" y="-310.7" font-family="Courier,monospace" font-size="11.00" fill="#000000">ListBuilder</text>
</g>
<!-- \\IcyData\\NHL\\Resource\\Builder\\Conferences\\ListBuilder&#45;&gt;\\IcyData\\NHL\\Resource\\Builder -->
<g id="edge16" class="edge">
<title>\\IcyData\\NHL\\Resource\\Builder\\Conferences\\ListBuilder&#45;&gt;\\IcyData\\NHL\\Resource\\Builder</title>
<path fill="none" stroke="#000000" d="M623.8995,-331.3719C618.3101,-334.2641 612.8197,-337.4824 607.8609,-341 576.0207,-363.5858 546.1724,-397.3822 527.4522,-420.713"/>
<polygon fill="none" stroke="#000000" points="524.5221,-418.7763 521.0757,-428.7949 530.0176,-423.1122 524.5221,-418.7763"/>
</g>
<!-- \\IcyData\\NHL\\Resource\\Builder\\People\\Get -->
<g id="node15" class="node">
<title>\\IcyData\\NHL\\Resource\\Builder\\People\\Get</title>
<polygon fill="none" stroke="#000000" points="695.1668,-253 641.1668,-253 641.1668,-217 695.1668,-217 695.1668,-253"/>
<text text-anchor="middle" x="668.1668" y="-231.7" font-family="Courier,monospace" font-size="11.00" fill="#000000">Get</text>
</g>
<!-- \\IcyData\\NHL\\Resource\\Builder\\People\\Get&#45;&gt;\\IcyData\\NHL\\Resource\\Builder -->
<g id="edge18" class="edge">
<title>\\IcyData\\NHL\\Resource\\Builder\\People\\Get&#45;&gt;\\IcyData\\NHL\\Resource\\Builder</title>
<path fill="none" stroke="#000000" d="M642.1475,-253.0596C630.8411,-261.65 617.9131,-272.5401 607.8609,-284 570.3689,-326.7421 538.184,-385.1677 520.9613,-419.216"/>
<polygon fill="none" stroke="#000000" points="517.6382,-418.0369 516.3077,-428.5479 523.9025,-421.1608 517.6382,-418.0369"/>
</g>
<!-- \\IcyData\\NHL\\Resource\\People -->
<g id="node17" class="node">
<title>\\IcyData\\NHL\\Resource\\People</title>
<polygon fill="none" stroke="#000000" points="695.7746,-750 640.559,-750 640.559,-714 695.7746,-714 695.7746,-750"/>
<text text-anchor="middle" x="668.1668" y="-728.7" font-family="Courier,monospace" font-size="11.00" fill="#000000">People</text>
</g>
<!-- \\IcyData\\NHL\\Resource -->
<g id="node20" class="node">
<title>\\IcyData\\NHL\\Resource</title>
<polygon fill="none" stroke="#000000" points="548.5657,-821 466.5442,-821 466.5442,-785 548.5657,-785 548.5657,-821"/>
<text text-anchor="start" x="474.5496" y="-805.2" font-family="Courier,monospace" font-size="11.00" fill="#000000">«abstract»</text>
<text text-anchor="start" x="481.1507" y="-794.2" font-family="Courier,monospace" font-size="11.00" fill="#000000">Resource</text>
</g>
<!-- \\IcyData\\NHL\\Resource\\People&#45;&gt;\\IcyData\\NHL\\Resource -->
<g id="edge12" class="edge">
<title>\\IcyData\\NHL\\Resource\\People&#45;&gt;\\IcyData\\NHL\\Resource</title>
<path fill="none" stroke="#000000" d="M640.5567,-744.2053C617.8514,-754.2424 585.0841,-768.7275 557.7555,-780.8084"/>
<polygon fill="none" stroke="#000000" points="556.0724,-777.7256 548.3413,-784.97 558.9026,-784.128 556.0724,-777.7256"/>
</g>
<!-- \\IcyData\\NHL\\Exception\\NHLException -->
<g id="node18" class="node">
<title>\\IcyData\\NHL\\Exception\\NHLException</title>
<polygon fill="none" stroke="#000000" points="715.8799,-158 620.4537,-158 620.4537,-122 715.8799,-122 715.8799,-158"/>
<text text-anchor="middle" x="668.1668" y="-136.7" font-family="Courier,monospace" font-size="11.00" fill="#000000">NHLException</text>
</g>
<!-- \\Exception -->
<g id="node23" class="node">
<title>\\Exception</title>
<ellipse fill="none" stroke="#000000" cx="507.555" cy="-18" rx="40.6162" ry="18"/>
<text text-anchor="middle" x="507.555" y="-13.8" font-family="Times,serif" font-size="14.00" fill="#c0c0c0">xception</text>
</g>
<!-- \\IcyData\\NHL\\Exception\\NHLException&#45;&gt;\\Exception -->
<g id="edge14" class="edge">
<title>\\IcyData\\NHL\\Exception\\NHLException&#45;&gt;\\Exception</title>
<path fill="none" stroke="#000000" d="M620.4759,-124.8513C616.0859,-122.7943 611.8096,-120.5134 607.8609,-118 575.714,-97.538 545.7306,-65.2047 527.0714,-42.8709"/>
<polygon fill="none" stroke="#000000" points="529.7745,-40.6474 520.7263,-35.1355 524.3623,-45.0869 529.7745,-40.6474"/>
</g>
<!-- \\Symfony\\Component\\HttpFoundation\\ParameterBag -->
<g id="node22" class="node">
<title>\\Symfony\\Component\\HttpFoundation\\ParameterBag</title>
<ellipse fill="none" stroke="#000000" cx="197.2748" cy="-1000" rx="197.0499" ry="18"/>
<text text-anchor="middle" x="197.2748" y="-995.8" font-family="Times,serif" font-size="14.00" fill="#c0c0c0">\Symfony\ComponentHttpFoundation\ParameterBag</text>
</g>
<!-- \\IcyData\\NHL\\Object&#45;&gt;\\Symfony\\Component\\HttpFoundation\\ParameterBag -->
<g id="edge1" class="edge">
<title>\\IcyData\\NHL\\Object&#45;&gt;\\Symfony\\Component\\HttpFoundation\\ParameterBag</title>
<path fill="none" stroke="#000000" d="M466.3522,-1000C449.264,-1000 428.0656,-1000 405.1217,-1000"/>
<polygon fill="none" stroke="#000000" points="404.8289,-996.5001 394.8288,-1000 404.8288,-1003.5001 404.8289,-996.5001"/>
</g>
<!-- \\IcyData\\NHL\\Client -->
<g id="node21" class="node">
<title>\\IcyData\\NHL\\Client</title>
<polygon fill="none" stroke="#000000" points="695.7746,-104 640.559,-104 640.559,-68 695.7746,-68 695.7746,-104"/>
<text text-anchor="middle" x="668.1668" y="-82.7" font-family="Courier,monospace" font-size="11.00" fill="#000000">Client</text>
</g>
</g>
</svg>
